<?xml version="1.0" encoding="UTF-8"?>
<svg id="Layer_1" data-name="Layer 1" xmlns="http://www.w3.org/2000/svg" viewBox="0 0 647.45 635.87">
  <defs>
    <style>
      .cls-1 {
        stroke-width: 3.56px;
      }

      .cls-1, .cls-2, .cls-3, .cls-4, .cls-5, .cls-6, .cls-7, .cls-8 {
        fill: none;
        stroke-miterlimit: 10;
      }

      .cls-1, .cls-5, .cls-8 {
        stroke: #333;
      }

      .cls-9 {
        fill: #333;
      }

      .cls-10 {
        fill: #f0e2c0;
      }

      .cls-2 {
        stroke-dasharray: 8.52 8.52;
      }

      .cls-2, .cls-3, .cls-4, .cls-6, .cls-7 {
        stroke: #f0e2c0;
      }

      .cls-2, .cls-3, .cls-4, .cls-6, .cls-7, .cls-8 {
        stroke-linecap: round;
      }

      .cls-2, .cls-4 {
        stroke-width: 1.43px;
      }

      .cls-3 {
        stroke-dasharray: 7.46 7.46;
      }

      .cls-3, .cls-7 {
        stroke-width: 1.35px;
      }

      .cls-11 {
        fill: #68c4a5;
      }

      .cls-12 {
        fill: #f9d950;
      }

      .cls-5 {
        stroke-width: 1.12px;
      }

      .cls-6 {
        stroke-width: 1.32px;
      }

      .cls-13 {
        fill: #d4ead0;
      }

      .cls-14 {
        fill: #f8b927;
      }

      .cls-8 {
        stroke-width: 2.68px;
      }
    </style>
  </defs>
  <g>
    <path class="cls-7" d="M77.32,357.61c0-2.14.04-4.28.1-6.41"/>
    <path class="cls-3" d="M78.09,338.55c10.09-128.99,117.96-230.51,249.54-230.51s242.95,104.86,249.95,236.83"/>
    <path class="cls-7" d="M577.84,351.2c.06,2.13.09,4.27.1,6.41"/>
    <rect class="cls-10" x="76.59" y="352.76" width="1.49" height="9.68" transform="translate(-282.11 425.88) rotate(-88.55)"/>
    <rect class="cls-10" x="573.08" y="356.86" width="9.68" height="1.49" transform="translate(-8.84 14.69) rotate(-1.45)"/>
  </g>
  <g>
    <g>
      <g>
        <rect class="cls-9" x="287.61" y="61.6" width="79.38" height="38.19"/>
        <rect class="cls-9" x="300.61" y="95.84" width="11.96" height="179.86"/>
        <rect class="cls-9" x="342.95" y="95.84" width="11.96" height="188.51"/>
        <g>
          <line class="cls-1" x1="308.17" y1="97.59" x2="347.49" y2="136.91"/>
          <line class="cls-1" x1="347.49" y1="97.59" x2="308.17" y2="136.91"/>
        </g>
        <g>
          <line class="cls-1" x1="308.17" y1="136.36" x2="347.49" y2="175.68"/>
          <line class="cls-1" x1="347.49" y1="136.36" x2="308.17" y2="175.68"/>
        </g>
        <g>
          <line class="cls-1" x1="347.49" y1="176.08" x2="308.17" y2="215.4"/>
          <line class="cls-1" x1="308.17" y1="176.08" x2="347.49" y2="215.4"/>
        </g>
        <g>
          <line class="cls-1" x1="347.49" y1="215.8" x2="308.17" y2="255.12"/>
          <line class="cls-1" x1="308.17" y1="215.8" x2="347.49" y2="255.12"/>
        </g>
        <g>
          <line class="cls-1" x1="347.49" y1="255.52" x2="308.17" y2="294.84"/>
          <line class="cls-1" x1="308.17" y1="255.52" x2="347.49" y2="294.84"/>
        </g>
      </g>
      <rect class="cls-9" x="340.9" y="41.86" width="20.58" height="23.42"/>
      <rect class="cls-14" x="345.61" y="45.69" width="11.17" height="11.17"/>
      <g>
        <rect class="cls-9" x="347.24" y="13.26" width="2.18" height="31.38"/>
        <rect class="cls-9" x="353.96" y="13.26" width="2.18" height="31.38"/>
        <rect class="cls-9" x="345.92" y="13.16" width="11.63" height="3.38"/>
        <rect class="cls-9" x="349.16" y="19.19" width="5.05" height=".65"/>
        <rect class="cls-9" x="349.16" y="22.49" width="5.05" height=".65"/>
        <rect class="cls-9" x="349.16" y="25.79" width="5.05" height=".65"/>
        <rect class="cls-9" x="349.16" y="29.09" width="5.05" height=".65"/>
        <rect class="cls-9" x="349.16" y="32.39" width="5.05" height=".65"/>
        <rect class="cls-9" x="349.16" y="35.69" width="5.05" height=".65"/>
        <rect class="cls-9" x="349.16" y="38.99" width="5.05" height=".65"/>
      </g>
      <g>
        <rect class="cls-9" x="423.51" y="-45.42" width="2.18" height="98.6" transform="translate(428.49 -420.72) rotate(90)"/>
        <rect class="cls-9" x="423.51" y="-38.69" width="2.18" height="98.6" transform="translate(435.21 -414) rotate(90)"/>
        <rect class="cls-9" x="466.5" y="5.6" width="11.63" height="3.38" transform="translate(479.61 -465.02) rotate(90)"/>
        <g>
          <rect class="cls-9" x="463.76" y="6.74" width="7.78" height="1" transform="translate(803.45 -318.32) rotate(135)"/>
          <rect class="cls-9" x="463.76" y="6.74" width="7.78" height="1" transform="translate(142.09 -328.56) rotate(45)"/>
        </g>
        <g>
          <rect class="cls-9" x="457.73" y="6.74" width="7.78" height="1" transform="translate(793.16 -314.06) rotate(135)"/>
          <rect class="cls-9" x="457.73" y="6.74" width="7.78" height="1" transform="translate(140.33 -324.3) rotate(45)"/>
        </g>
        <g>
          <rect class="cls-9" x="451.71" y="6.74" width="7.78" height="1" transform="translate(782.87 -309.8) rotate(135)"/>
          <rect class="cls-9" x="451.71" y="6.74" width="7.78" height="1" transform="translate(138.56 -320.04) rotate(45)"/>
        </g>
        <g>
          <rect class="cls-9" x="445.68" y="6.74" width="7.78" height="1" transform="translate(772.59 -305.53) rotate(135)"/>
          <rect class="cls-9" x="445.68" y="6.74" width="7.78" height="1" transform="translate(136.8 -315.77) rotate(45)"/>
        </g>
        <g>
          <rect class="cls-9" x="439.65" y="6.74" width="7.78" height="1" transform="translate(762.29 -301.27) rotate(135)"/>
          <rect class="cls-9" x="439.65" y="6.74" width="7.78" height="1" transform="translate(135.03 -311.51) rotate(45)"/>
        </g>
        <g>
          <rect class="cls-9" x="433.63" y="6.74" width="7.78" height="1" transform="translate(752 -297.01) rotate(135)"/>
          <rect class="cls-9" x="433.63" y="6.74" width="7.78" height="1" transform="translate(133.26 -307.25) rotate(45)"/>
        </g>
        <g>
          <rect class="cls-9" x="427.6" y="6.74" width="7.78" height="1" transform="translate(741.72 -292.75) rotate(135)"/>
          <rect class="cls-9" x="427.6" y="6.74" width="7.78" height="1" transform="translate(131.5 -302.99) rotate(45)"/>
        </g>
        <g>
          <rect class="cls-9" x="421.57" y="6.74" width="7.78" height="1" transform="translate(731.43 -288.49) rotate(135)"/>
          <rect class="cls-9" x="421.57" y="6.74" width="7.78" height="1" transform="translate(129.73 -298.73) rotate(45)"/>
        </g>
        <g>
          <rect class="cls-9" x="415.54" y="6.74" width="7.78" height="1" transform="translate(721.14 -284.23) rotate(135)"/>
          <rect class="cls-9" x="415.54" y="6.74" width="7.78" height="1" transform="translate(127.97 -294.46) rotate(45)"/>
        </g>
        <g>
          <rect class="cls-9" x="409.52" y="6.74" width="7.78" height="1" transform="translate(710.85 -279.97) rotate(135)"/>
          <rect class="cls-9" x="409.52" y="6.74" width="7.78" height="1" transform="translate(126.2 -290.2) rotate(45)"/>
        </g>
        <g>
          <rect class="cls-9" x="403.49" y="6.74" width="7.78" height="1" transform="translate(700.56 -275.7) rotate(135)"/>
          <rect class="cls-9" x="403.49" y="6.74" width="7.78" height="1" transform="translate(124.44 -285.94) rotate(45)"/>
        </g>
        <g>
          <rect class="cls-9" x="397.46" y="6.74" width="7.78" height="1" transform="translate(690.27 -271.44) rotate(135)"/>
          <rect class="cls-9" x="397.46" y="6.74" width="7.78" height="1" transform="translate(122.67 -281.68) rotate(45)"/>
        </g>
        <g>
          <rect class="cls-9" x="391.44" y="6.74" width="7.78" height="1" transform="translate(679.98 -267.18) rotate(135)"/>
          <rect class="cls-9" x="391.44" y="6.74" width="7.78" height="1" transform="translate(120.91 -277.42) rotate(45)"/>
        </g>
        <g>
          <rect class="cls-9" x="385.41" y="6.74" width="7.78" height="1" transform="translate(669.69 -262.92) rotate(135)"/>
          <rect class="cls-9" x="385.41" y="6.74" width="7.78" height="1" transform="translate(119.14 -273.16) rotate(45)"/>
        </g>
        <g>
          <rect class="cls-9" x="379.38" y="6.74" width="7.78" height="1" transform="translate(659.41 -258.66) rotate(135)"/>
          <rect class="cls-9" x="379.38" y="6.74" width="7.78" height="1" transform="translate(117.38 -268.89) rotate(45)"/>
        </g>
      </g>
      <rect class="cls-9" x="338.02" y=".99" width="42.38" height="12.9"/>
      <path class="cls-9" d="M486.47,9.84h-13.67v-5.38h13.67c1.48,0,2.69,1.2,2.69,2.69h0c0,1.48-1.2,2.69-2.69,2.69Z"/>
      <rect class="cls-9" x="478.62" width="5.46" height="15.82"/>
      <rect class="cls-9" x="480.81" y="13.89" width=".5" height="119.8"/>
      <rect class="cls-9" x="479.2" y="131.05" width="3.55" height="5.61"/>
      <path class="cls-9" d="M480.32,140.44c.17,1.42.25,2.99-.59,4.14-.1.14-.22.27-.37.35-.53.29-1.2-.19-1.37-.77-.17-.58,0-1.19.1-1.78.04-.21.06-.44-.04-.63-.17-.31-.63-.35-.93-.16-.3.18-.47.52-.59.84-.32.85-.42,1.78-.29,2.68.11.75.38,1.49.91,2.04.78.81,2.09,1.06,3.12.59,1.36-.63,1.99-2.27,1.98-3.77s-.5-2.95-.73-4.44c-.22-1.41-.15-2.8.03-4.2-1.74,1.24-1.47,3.19-1.23,5.12Z"/>
    </g>
    <polygon class="cls-9" points="405.2 147.17 532.93 134.45 532.93 140.82 412.67 162.27 404.78 160.6 405.2 147.17"/>
  </g>
  <g>
    <line class="cls-4" x1="114.73" y1="631.56" x2="119.81" y2="626.37"/>
    <line class="cls-2" x1="129.93" y1="616.04" x2="610.18" y2="125.61"/>
    <line class="cls-4" x1="615.23" y1="120.45" x2="620.32" y2="115.25"/>
    <rect class="cls-10" x="113.94" y="626.44" width="1.57" height="10.24" transform="translate(-416.78 271.66) rotate(-45.6)"/>
    <rect class="cls-10" x="619.53" y="110.13" width="1.57" height="10.24" transform="translate(103.97 477.83) rotate(-45.6)"/>
  </g>
  <g>
    <line class="cls-6" x1="540.22" y1="632.98" x2="55.46" y2="148.88"/>
    <polygon class="cls-10" points="537.41 623.65 536.09 624.27 540.12 632.88 531.5 628.87 530.89 630.18 543.12 635.87 537.41 623.65"/>
    <polygon class="cls-10" points="64.79 151.67 64.18 152.99 55.56 148.98 59.58 157.59 58.27 158.2 52.56 145.98 64.79 151.67"/>
  </g>
  <g>
    <g>
      <g>
        <rect class="cls-11" x="292.67" y="-1.7" width="69.93" height="708.84" rx="4.2" ry="4.2" transform="translate(-153.46 334.98) rotate(-45)"/>
        <path class="cls-9" d="M550.31,625.34c-113.77-112.86-232.26-225.9-343.68-341.48-48.24-49.5-100.44-101.83-149.42-150.33,0,0-2.15-2.13-2.15-2.13-.63-.59-1.74-1.68-2.06-2.95-.59-1.89-.08-4.08,1.33-5.49l1.06-1.08c2.66-2.71,9.98-10.13,12.74-12.95,6.8-6.92,20.95-21.29,27.61-28.06,0,0,1.06-1.08,1.06-1.08.37-.36.63-.69,1.26-1.2,2.28-1.86,5.89-1.64,7.96.47,46.14,45.21,92.16,90.55,137.98,136.08,116.02,114.6,235.91,235.48,349.43,352.85,0,0,4.24,4.32,4.24,4.32l2.12,2.16c.66.64,1.61,1.58,1.89,2.73.51,1.69.03,3.63-1.24,4.86-8.3,8.16-22.83,22.52-31.22,30.88,0,0-8.59,8.54-8.59,8.54-2.91,2.71-6.08,7.68-10.35,3.87h0ZM550.79,624.85c1.31,1.35,3.62,1.5,5.07.31,1.41-1.31,2.84-2.83,4.26-4.24l8.54-8.59c8.41-8.44,22.65-22.85,30.87-31.22.9-.91,1.24-2.32.84-3.53-.25-.85-.8-1.38-1.58-2.13l-2.16-2.12-4.32-4.24c-117.42-113.57-238.2-233.38-352.85-349.44-45.54-45.82-90.87-91.84-136.08-137.98-.77-.83-2.2-.96-3.11-.24-.16.11-.58.54-.93.88l-1.08,1.06c-6.74,6.58-21.18,20.87-28.06,27.61-2.86,2.77-10.18,10.05-12.95,12.74-1.09,1.09-2.41,2.18-1.82,3.97.09.89,2.82,3.24,3.55,4.06,48.44,48.96,100.86,101.18,150.33,149.42,115.63,111.45,228.56,229.86,341.48,343.68h0Z"/>
      </g>
      <line class="cls-8" x1="114.06" y1="89.72" x2="100.34" y2="103.44"/>
      <line class="cls-8" x1="130.02" y1="105.67" x2="116.3" y2="119.4"/>
      <line class="cls-8" x1="145.98" y1="121.63" x2="132.25" y2="135.35"/>
      <line class="cls-8" x1="161.93" y1="137.58" x2="148.21" y2="151.31"/>
      <line class="cls-8" x1="177.89" y1="153.54" x2="164.16" y2="167.26"/>
      <line class="cls-8" x1="193.84" y1="169.49" x2="180.12" y2="183.22"/>
      <line class="cls-8" x1="209.8" y1="185.45" x2="196.07" y2="199.17"/>
      <line class="cls-8" x1="225.75" y1="201.41" x2="212.03" y2="215.13"/>
      <line class="cls-8" x1="241.71" y1="217.36" x2="227.99" y2="231.08"/>
      <line class="cls-8" x1="257.66" y1="233.32" x2="243.94" y2="247.04"/>
      <line class="cls-8" x1="273.62" y1="249.27" x2="259.9" y2="262.99"/>
      <line class="cls-8" x1="289.57" y1="265.23" x2="275.85" y2="278.95"/>
      <line class="cls-8" x1="305.53" y1="281.18" x2="291.81" y2="294.91"/>
      <line class="cls-8" x1="321.49" y1="297.14" x2="307.76" y2="310.86"/>
      <line class="cls-8" x1="337.44" y1="313.09" x2="323.72" y2="326.82"/>
      <line class="cls-8" x1="353.4" y1="329.05" x2="339.67" y2="342.77"/>
      <line class="cls-8" x1="369.35" y1="345" x2="355.63" y2="358.73"/>
      <line class="cls-8" x1="385.31" y1="360.96" x2="371.58" y2="374.68"/>
      <line class="cls-8" x1="401.26" y1="376.92" x2="387.54" y2="390.64"/>
      <line class="cls-8" x1="417.22" y1="392.87" x2="403.5" y2="406.59"/>
      <line class="cls-8" x1="433.17" y1="408.83" x2="419.45" y2="422.55"/>
      <line class="cls-8" x1="449.13" y1="424.78" x2="435.41" y2="438.5"/>
      <line class="cls-8" x1="465.08" y1="440.74" x2="451.36" y2="454.46"/>
      <line class="cls-8" x1="481.04" y1="456.69" x2="467.32" y2="470.42"/>
      <line class="cls-8" x1="497" y1="472.65" x2="483.27" y2="486.37"/>
      <line class="cls-8" x1="512.95" y1="488.6" x2="499.23" y2="502.33"/>
      <line class="cls-8" x1="528.91" y1="504.56" x2="515.18" y2="518.28"/>
      <line class="cls-8" x1="544.86" y1="520.51" x2="531.14" y2="534.24"/>
      <line class="cls-8" x1="560.82" y1="536.47" x2="547.09" y2="550.19"/>
      <line class="cls-8" x1="576.77" y1="552.43" x2="563.05" y2="566.15"/>
      <line class="cls-8" x1="592.73" y1="568.38" x2="579.01" y2="582.1"/>
      <path class="cls-9" d="M75.83,103.03l489.85,491.45c.95-2-497.18-489.79-489.85-491.45h0Z"/>
    </g>
    <path class="cls-9" d="M76.63,127.64c1.32-1.32,1.32-3.47,0-4.79-1.32-1.32-3.47-1.32-4.79,0-1.32,1.32-1.32,3.47,0,4.79,1.32,1.32,3.47,1.32,4.79,0Z"/>
  </g>
  <g>
    <g>
      <path class="cls-13" d="M277.36,380.73v-53.69h-23.02c-2.59-10.39-6.66-20.19-11.99-29.17l16.21-16.21-37.96-37.96-16.1,16.1c-9-5.4-18.83-9.54-29.27-12.18v-22.72h-53.69v22.72c-10.44,2.64-20.27,6.78-29.27,12.18l-16.1-16.1-37.96,37.96,16.21,16.21c-5.32,8.98-9.4,18.77-11.99,29.17h-23.02v53.69h23.2c2.64,10.29,6.76,19.99,12.09,28.88l-16.5,16.5,37.96,37.96,16.6-16.6c8.86,5.26,18.52,9.3,28.77,11.89v23.51h53.69v-23.51c10.25-2.59,19.91-6.64,28.77-11.89l16.6,16.6,37.96-37.96-16.5-16.5c5.33-8.89,9.45-18.58,12.09-28.88h23.2ZM148.38,410.24c-31.34,0-56.75-25.41-56.75-56.75s25.41-56.75,56.75-56.75,56.75,25.41,56.75,56.75-25.41,56.75-56.75,56.75Z"/>
      <g>
        <path class="cls-9" d="M277.11,380.48l-1.43-53.44,1.69,1.69-23.02.39-1.59.03-.43-1.6c-2.84-10.62-7.27-20.77-13.13-30.02,1.63-1.6,15.68-16.06,17.43-17.8,0,0,0,3.89,0,3.89-9.6-9.33-28.69-28.31-38.21-37.72,0,0,4.38,0,4.38,0l-16.04,16.17-1.75,1.76-2.15-1.29c-9.53-5.74-19.97-9.92-30.8-12.47l.02-2.44.19-22.72,2.96,2.96-53.69-.79,2.18-2.18-.36,22.72-.02,1.44-1.35.32c-10.14,2.41-19.99,6.26-29.02,11.58l-.92.54-.74-.75-15.96-16.25h1.63c-9.48,9.45-28.6,28.41-37.98,37.95,0,0,0-1.6,0-1.6l16.31,16.11.7.69-.51.86c-5.5,9.36-9.39,19.59-11.78,30.14l-1.3.02-23.02.29,1.93-1.93.76,53.69-2.69-2.69c1.26,0,24.93-.25,25.44-.24,2.65,10.62,6.88,20.85,12.61,30.16,0,0,1.3,2.12,1.3,2.12l-1.78,1.8-16.41,16.59v-4.72l38.17,37.76h-5.14s16.51-16.7,16.51-16.7l2.04-2.07,2.53,1.49c9.5,5.63,19.9,9.69,30.65,12.17-.03,1.61.02,24.16,0,26.46,0,0-3.79-3.79-3.79-3.79l53.69.24-3.55,3.55c-.02-1.8.27-25.18.26-26.12,0,0,2.48-.6,2.48-.6,10.58-2.54,20.75-6.83,30.1-12.46,1.76,1.84,16.1,16.38,18.06,18.42,0,0-3.93,0-3.93,0,12.75-12.56,25.69-24.93,38.52-37.41v2.82s-16.23-16.76-16.23-16.76l-.9-.93c5.81-9.03,10.32-18.92,13.23-29.32l.2-.72h.71c7.5.16,15.11.49,22.95.7h0ZM277.61,380.98c-7.63.21-15.48.54-23.45.68l.91-.7c-2.4,10.29-6.33,20.25-11.61,29.48l-.24-1.98,16.76,16.23,1.41,1.37c-13.59,13.97-27.06,28.06-40.75,41.94l-2-1.96-16.77-16.44,3.67.46c-9.15,5.55-19.11,9.79-29.49,12.52l2.51-3.22.23,23.5.03,3.53-3.58.02-53.69.24-3.79.02v-3.81s0-23.51,0-23.51l2.86,3.68c-10.45-2.65-20.51-6.81-29.76-12.34l4.58-.58c-.94.86-18.68,18.53-19.29,19.08,0,0-2.54-2.57-2.54-2.57l-37.76-38.17-2.36-2.39,2.36-2.33,16.59-16.41-.48,3.92c-5.48-9.28-9.58-19.36-12.16-29.8l2.82,2.19-23.2-.22-2.73-.03.04-2.67.76-53.69.03-1.95,1.9.02,23.02.29-1.59,1.24c2.7-10.37,6.99-20.27,12.48-29.42l.2,1.55-16.11-16.31-.8-.81.8-.79c9.55-9.38,28.51-28.5,37.95-37.98,0,0,.81-.81.81-.81l.83.81,16.25,15.96-1.66-.2c9.16-5.6,19.1-9.99,29.52-12.78l-1.37,1.76-.36-22.72-.03-2.15c2.37-.06,56.84-.81,58.84-.86l.02,3.01.19,22.72-2.38-3.05c10.58,2.66,20.79,6.87,30.14,12.5l-3.9.48,16.17-16.04,2.21-2.19c10.5,10.56,29.45,29.76,39.89,40.4,0,0,1.95,1.98,1.95,1.98l-1.95,1.91-16.38,16.04.38-3.06c5.38,9.35,9.44,19.46,11.84,29.94l-2.02-1.58,23.02.39,1.73.03-.04,1.66-1.43,53.94h0Z"/>
        <path class="cls-9" d="M148.38,410.6c-42.47.08-72.7-39.56-54.24-79.58,22.27-46.54,88.59-49.63,110.1-.67,16.68,40.52-13.02,80.41-55.86,80.25h0ZM148.38,409.89c47.2-.62,70.17-60.93,37.75-94.15-26.8-27.85-74.88-20.97-88.37,16.79-12.54,34.25,12.51,77.67,50.62,77.36h0Z"/>
      </g>
    </g>
    <path class="cls-9" d="M148.38,422.83c-62.45-.46-93.09-73.99-49.17-118.5,26.77-26.98,71.76-27.34,98.62-.28,43.91,44.47,12.88,118.47-49.45,118.79h0ZM148.38,422.69c61.01-.49,91.24-74.37,48.5-117.7-34.28-34.71-93.81-23.3-112.12,22.16-18.51,44.63,15.06,95.72,63.61,95.54h0Z"/>
    <path class="cls-9" d="M148.38,448.19c-67.8.28-115.06-68.25-88.08-131.18,14.52-34.76,50.39-58.8,88.08-58.85,37.92-.73,74.48,23.39,88.72,58.58,26.22,63.24-20.67,131.67-88.72,131.45h0ZM148.38,447.9c37.29.29,72.55-24.2,86.1-58.75,25.13-61.01-20.09-129.03-86.1-129.44-67.29-.53-111.54,67.8-86.21,129.49,13.67,34.5,48.89,59.03,86.21,58.7h0Z"/>
    <g>
      <path class="cls-9" d="M152.88,272.83c0-2.48-2.01-4.5-4.5-4.5s-4.5,2.01-4.5,4.5,2.01,4.5,4.5,4.5,4.5-2.01,4.5-4.5Z"/>
      <path class="cls-9" d="M152.88,435.49c0-2.48-2.01-4.5-4.5-4.5s-4.5,2.01-4.5,4.5,2.01,4.5,4.5,4.5,4.5-2.01,4.5-4.5Z"/>
    </g>
    <g>
      <path class="cls-9" d="M209.06,299.84c1.76-1.76,1.76-4.61,0-6.36-1.76-1.76-4.61-1.76-6.36,0-1.76,1.76-1.76,4.61,0,6.36,1.76,1.76,4.61,1.76,6.36,0Z"/>
      <path class="cls-9" d="M94.05,414.85c1.76-1.76,1.76-4.61,0-6.36-1.76-1.76-4.61-1.76-6.36,0-1.76,1.76-1.76,4.61,0,6.36,1.76,1.76,4.61,1.76,6.36,0Z"/>
    </g>
    <g>
      <circle class="cls-9" cx="229.7" cy="354.16" r="4.5"/>
      <circle class="cls-9" cx="67.05" cy="354.16" r="4.5"/>
    </g>
    <g>
      <path class="cls-9" d="M202.7,414.85c1.76,1.76,4.61,1.76,6.36,0,1.76-1.76,1.76-4.61,0-6.36-1.76-1.76-4.61-1.76-6.36,0-1.76,1.76-1.76,4.61,0,6.36Z"/>
      <path class="cls-9" d="M87.69,299.84c1.76,1.76,4.61,1.76,6.36,0,1.76-1.76,1.76-4.61,0-6.36-1.76-1.76-4.61-1.76-6.36,0-1.76,1.76-1.76,4.61,0,6.36Z"/>
    </g>
  </g>
  <g>
    <g>
      <g>
        <path class="cls-13" d="M645.63,376.98v-43.52h-20.68c-2.93-14.11-8.56-27.23-16.33-38.79l14.8-14.8-30.77-30.77-14.96,14.96c-11.55-7.61-24.6-13.11-38.64-15.92v-21.23h-43.52v21.23c-14.03,2.82-27.09,8.32-38.64,15.92l-14.96-14.96-30.77,30.77,14.8,14.8c-7.77,11.56-13.4,24.68-16.33,38.79h-20.68v43.52h20.41c2.77,14.29,8.32,27.6,16.05,39.33l-14.26,14.26,30.77,30.77,14.11-14.11c11.75,7.9,25.11,13.58,39.48,16.47v19.84h43.52v-19.84c14.37-2.89,27.73-8.57,39.48-16.47l14.11,14.11,30.77-30.77-14.26-14.26c7.73-11.74,13.27-25.04,16.05-39.33h20.41ZM541.78,398.32h-48.96l-24.48-42.4,24.48-42.4h48.96l24.48,42.4-24.48,42.4Z"/>
        <g>
          <path class="cls-9" d="M645.33,376.68l-1.47-43.22,1.77,1.77c-6.89.21-13.78.36-20.67.5l-1.79.04c-3.22-14.94-9.52-29.11-18.44-41.42,1.26-1.25,14.76-15.17,16.39-16.81,0,0,0,4.65,0,4.65-10.36-10.16-20.75-20.28-31.03-30.51h5.17c-1.61,1.64-16.03,16.18-17.02,17.19,0,0-2.59-1.68-2.59-1.68-12.21-7.98-26-13.39-40.33-16.03.04-2.05.21-21.74.25-24.26,0,0,3.52,3.52,3.52,3.52l-10.88-.18c-6.9-.14-25.5-.47-32.64-.61,0,0,2.72-2.72,2.72-2.72,0,.43-.47,23.79-.45,23.17-14.14,2.38-27.91,7.43-40.05,15.3l-1.09.71c-5.24-5.33-10.42-10.72-15.7-16.01h1.93s-15.45,15.32-15.45,15.32l-15.35,15.42v-1.88l14.9,14.71.85.84-.67,1.01c-8,12.04-13.33,25.77-15.86,39.98,0,0-1.69.03-1.69.03l-20.67.33,2.36-2.36.78,43.52-3.14-3.14c1.88,0,22.18-.29,23.17-.28,1.48,7.7,3.64,15.3,6.72,22.5,3.05,7.31,7.07,14.21,11.53,20.73-1.74,1.75-14.42,14.63-16.39,16.61,0,0,0-5.66,0-5.66l30.98,30.56h-6.07c2.06-2.07,14.94-15.16,16.54-16.77,0,0,3.07,2.02,3.07,2.02,12.52,8.3,26.75,13.89,41.55,16.42-.01,3.1,0,20.24-.02,23.56,0,0-4.51-4.52-4.51-4.52l43.52.24-4.27,4.27.17-19.84.03-3.41c15.76-2.54,30.85-8.69,44.08-17.71,0,0,2.04,2.09,2.04,2.09l13.91,14.31h-4.71c10.37-10.14,20.9-20.13,31.34-30.21v3.58l-13.98-14.54-1.23-1.28c8.35-11.91,14.6-25.39,17.75-39.76l.19-.88c6.86.15,13.74.54,20.96.78h0ZM645.93,377.28c-6.7.23-13.64.6-20.71.76l1.04-.86c-2.38,14.24-7.53,28.08-15.3,40.3l-.27-2.69,14.54,13.98,1.79,1.72c-10.68,11.05-21.26,22.21-32,33.2l-2.3,2.35-2.42-2.35-14.31-13.91,4.58.44c-12.18,8.47-26.13,14.4-40.69,17.48l3.29-4.02.17,19.84.04,4.25c-.65.11-45.85.18-47.83.27,0,0-4.51.02-4.51.02.02-2.5-.03-21.36-.02-24.38,0,0,3.64,4.44,3.64,4.44-14.64-2.97-28.75-8.78-41.06-17.23l5.6-.54c-1.51,1.44-15.88,15.71-17.28,17.05,0,0-3-3.04-3-3.04l-30.56-30.98-2.83-2.87c1.56-1.51,15.26-15.07,17.19-16.95,0,0-.49,4.86-.49,4.86-8.04-12.37-13.51-26.36-16.15-40.81l3.33,2.75-20.41-.25-3.2-.04.06-3.1.78-43.52.04-2.4c1.29.03,21.26.33,22.99.37,0,0-1.99,1.62-1.99,1.62,1.57-7.02,3.82-13.87,6.7-20.43,2.9-6.55,6.36-12.86,10.4-18.76l.18,1.85-14.71-14.9-.94-.95.94-.93,15.42-15.35,15.32-15.45.96-.97.97.97c4.99,4.98,10.07,9.87,15.1,14.81l-1.98-.2c5.9-3.96,12.16-7.41,18.69-10.27,6.54-2.85,13.37-5.06,20.36-6.61l-1.86,2.27-.41-21.23-.05-2.67,2.78-.05,21.76-.41c7.04-.14,18.22-.33,25.24-.44.05,1.77.21,22.43.25,24.81,0,0-3-3.66-3-3.66,7.12,1.38,14.09,3.51,20.8,6.25,6.72,2.74,13.15,6.17,19.17,10.19l-4.73.48,15.03-14.88,2.61-2.58,2.57,2.58c11.01,11.06,21.9,22.27,32.84,33.41l-2.33,2.27-14.99,14.62.37-3.82c7.9,12.13,13.43,25.8,16.04,40.01l-2.22-1.81c7.5.15,15,.31,22.5.55l-.05,1.72c-.4,10.93-1.01,32.91-1.47,43.82h0Z"/>
          <path class="cls-9" d="M541.99,398.68c-16.87,2.04-34.16,3.07-51.24,3.3-6.77-11.06-13.17-22.34-18.7-34.08-1.98-4.04-3.89-8.12-5.94-12.13l.56-.83c9.11-13.57,16.91-27.95,24.14-42.6l.53-1.07,1.48-.09c17.1-1.24,34.23-1.69,51.36-2.04,2.51,4.23,5.15,8.45,7.64,12.7,6.65,11.2,12.83,22.68,18.92,34.2-9.03,14.55-18.69,28.88-28.75,42.63h0ZM541.57,397.95c6.77-14.94,13.74-29.54,21.32-43.98v3.89c-8.74-13.79-17.07-27.83-24.84-42.19,0,0,3.73,2.15,3.73,2.15-16.33-.32-32.65-.81-48.96-1.98,0,0,2.01-1.16,2.01-1.16-4.52,6.81-8.97,13.66-13.1,20.7-4.21,7-8.1,14.18-11.71,21.5v-1.93c2.24,3.42,4.58,6.78,6.86,10.17,6.97,10.09,13.29,20.58,19.11,31.36,0,0-3.16-1.83-3.16-1.83,16.32.34,32.41,1.5,48.75,3.28h0Z"/>
        </g>
      </g>
      <path class="cls-9" d="M608.39,355.22c.36-49.22-42.76-88.97-91.09-89.23-64.7-1.27-108.23,63.98-82.52,123.41,24.64,58,100.6,72.47,145.93,29.22,17.28-16.17,27.75-39.6,27.68-63.41h0ZM608.9,355.22c.39,36.45-21.67,72.47-55.71,86.65-61.1,26.26-130.06-20.17-128.63-86.65.74-64.44,68.27-112.14,128.55-86.45,34.11,13.97,56.11,50.05,55.79,86.45h0Z"/>
    </g>
    <path class="cls-9" d="M548.33,409.66c-17.28.37-44.53.47-62.01.67,0,0-.42,0-.42,0l-.22-.38c-5.26-8.89-10.43-17.83-15.61-26.77-5.26-9.08-10.53-18.16-15.72-27.28l.25-.42,15.61-26.76,15.71-26.71.14-.23h.26c20,.21,41.9.26,61.97.08h.22s.12.2.12.2c9.31,15.93,22.58,37.99,31.47,53.87-10.12,17.48-21.36,36.37-31.76,53.74h0ZM548.25,409.51c9.72-17.55,20.48-36.63,30.41-53.95v.71c-5.23-8.91-10.35-17.87-15.48-26.84l-15.22-26.99.34.19c-7.73-.04-23.26-.14-30.98-.12-10.33.01-20.66.09-30.98.19l.4-.23c-7.57,13.46-22.98,40.46-30.65,53.86,0,0,0-.85,0-.85,5.22,8.91,10.36,17.87,15.51,26.82,5.16,8.95,10.32,17.9,15.38,26.9l-.64-.37c17.58.07,44.54.44,61.93.67h0Z"/>
  </g>
  <g>
    <rect class="cls-9" x="260.42" y="93.63" width="4.18" height="98.02"/>
    <rect class="cls-9" x="273.27" y="93.63" width="4.18" height="98.02"/>
    <rect class="cls-9" x="257.91" y="93.43" width="22.22" height="6.47"/>
    <g>
      <rect class="cls-9" x="261.49" y="104.63" width="14.87" height="1.9" transform="translate(153.43 -159.23) rotate(45)"/>
      <rect class="cls-9" x="261.49" y="104.63" width="14.87" height="1.9" transform="translate(4.1 221.08) rotate(-45)"/>
    </g>
    <g>
      <rect class="cls-9" x="261.49" y="116.16" width="14.87" height="1.9" transform="translate(161.57 -155.86) rotate(45)"/>
      <rect class="cls-9" x="261.49" y="116.16" width="14.87" height="1.9" transform="translate(-4.04 224.45) rotate(-45)"/>
    </g>
    <g>
      <rect class="cls-9" x="261.49" y="127.68" width="14.87" height="1.9" transform="translate(169.72 -152.48) rotate(45)"/>
      <rect class="cls-9" x="261.49" y="127.68" width="14.87" height="1.9" transform="translate(-12.19 227.83) rotate(-45)"/>
    </g>
    <g>
      <rect class="cls-9" x="261.49" y="139.2" width="14.87" height="1.9" transform="translate(177.86 -149.11) rotate(45)"/>
      <rect class="cls-9" x="261.49" y="139.2" width="14.87" height="1.9" transform="translate(-20.34 231.21) rotate(-45)"/>
    </g>
    <g>
      <rect class="cls-9" x="261.49" y="150.72" width="14.87" height="1.9" transform="translate(186.01 -145.73) rotate(45)"/>
      <rect class="cls-9" x="261.49" y="150.72" width="14.87" height="1.9" transform="translate(-28.48 234.58) rotate(-45)"/>
    </g>
    <g>
      <rect class="cls-9" x="261.49" y="162.24" width="14.87" height="1.9" transform="translate(194.16 -142.36) rotate(45)"/>
      <rect class="cls-9" x="261.49" y="162.24" width="14.87" height="1.9" transform="translate(-36.63 237.96) rotate(-45)"/>
    </g>
    <g>
      <rect class="cls-9" x="261.49" y="173.76" width="14.87" height="1.9" transform="translate(202.3 -138.98) rotate(45)"/>
      <rect class="cls-9" x="261.49" y="173.76" width="14.87" height="1.9" transform="translate(-44.78 241.33) rotate(-45)"/>
    </g>
    <g>
      <rect class="cls-9" x="261.49" y="185.28" width="14.87" height="1.9" transform="translate(210.45 -135.61) rotate(45)"/>
      <rect class="cls-9" x="261.49" y="185.28" width="14.87" height="1.9" transform="translate(-52.92 244.7) rotate(-45)"/>
    </g>
  </g>
  <g>
    <g>
      <path class="cls-10" d="M600.39,206.62l-14.55-18.52c-.47-.6-1.22-.9-1.98-.79l-23.32,3.34c-.75.11-1.39.61-1.68,1.32l-8.77,21.87c-.28.71-.17,1.51.3,2.11l14.55,18.52c.47.6,1.22.9,1.98.79l23.32-3.34c.75-.11,1.39-.61,1.68-1.32l8.77-21.87c.28-.71.17-1.51-.3-2.11ZM564.92,219.5c-4.54-5.78-3.54-14.15,2.24-18.69,5.78-4.54,14.15-3.54,18.69,2.24,4.54,5.78,3.54,14.15-2.24,18.69-5.78,4.54-14.15,3.54-18.69-2.24Z"/>
      <g>
        <path class="cls-9" d="M600.26,206.72c-4.68-6.04-9.98-11.64-15.04-17.4-.65-.75-.57-.84-1.97-.54l-2.39.38c-5.98,1.01-14.24,1.76-20.34,2.33-1.01.17-1.1,1.18-1.65,2.2l-1.93,4.44c-2.18,5.19-4.19,10.49-6.05,15.81-.25.6-.11,1.06.2,1.44,5.16,5.92,10.18,11.98,15.11,18.09.4.27.1.19,1.28.03,7.15-1.17,14.35-2.16,21.55-3,.21-.06,1.21-.05,1.37-.26.85-1.48,2.03-4.3,2.92-6.03,1.38-3.1,4.94-10.11,6.17-13.16.45-1.37,1.81-3.02.76-4.34h0ZM600.52,206.52c1.21,1.32-.15,3.36-.57,4.72-.54,1.52-1.11,3.03-1.6,4.57l-3.03,9.21c-.61,1.91-1.25,3.85-1.92,5.74-.19.95-1.37,2.41-2.57,2.6-6.81,1.24-13.61,2.22-20.47,3.12-1.17.11-2.61.41-3.91.43-1.3-.05-2.42-.86-3.11-1.92-4.65-6.08-9.22-12.24-13.64-18.49-1.38-1.68.06-3.76.72-5.33.67-1.47,1.31-2.95,1.94-4.43,1.99-4.68,4.02-9.83,5.69-14.65.2-.87,1.06-1.99,2.08-2.2.56-.13.84-.17,1.27-.26l9.51-1.81c3.18-.55,6.36-1.05,9.56-1.45,2-.17,4.91-1.14,6.35.95,4.55,6.41,8.81,13.08,13.7,19.22h0Z"/>
        <path class="cls-9" d="M564.8,219.6c-8.39-10.33-1.26-24.21,12.25-22.06,12.76,1.7,18.01,17.2,7.64,25.57-6.31,5.14-15.49,2.58-19.89-3.5h0ZM565.05,219.4c6.53,8.09,20.72,3.09,22.04-6.72,1.72-11.09-10.49-18.86-19.09-10.81-4.71,4.19-7.31,12.04-2.95,17.53h0Z"/>
      </g>
    </g>
    <path class="cls-9" d="M561.54,222.15c-9.88-12.5.06-30.47,15.96-28.46,9.46.98,16.98,10.2,15.71,19.72-1.78,15.85-22.01,21.32-31.67,8.74h0ZM561.61,222.1c9.34,11.92,29.11,6.16,30.85-8.78,1.37-9.14-5.69-18.47-14.99-19.35-14.92-1.8-25.25,16.29-15.86,28.13h0Z"/>
  </g>
  <g>
    <g>
      <g>
        <rect class="cls-14" x="72.3" y="314.27" width="612.44" height="16.56" transform="translate(-117.21 362.12) rotate(-45)"/>
        <path class="cls-9" d="M601.15,111.87c-129.93,134.48-273.13,273.9-405.53,406.65,0,0-26.89,27.3-26.89,27.3l-.88.89-.9-.89-11.8-11.62-.98-.96c36.08-36.76,72.24-73.43,108.55-109.95,87.61-88.44,182.26-182.63,271.33-269.99,18.3-18.02,36.74-35.9,55.15-53.81l.33.34,11.62,12.05h0ZM600.65,111.87l-11.8-11.37h.68c-17.79,18.29-35.57,36.61-53.47,54.79-87.42,89.14-181.5,183.67-269.99,271.33-36.2,35.98-72.53,71.82-108.96,107.57v-1.96l11.62,11.8h-1.78l27.24-26.83c133.07-132.75,271.37-274.76,406.46-405.34h0Z"/>
      </g>
      <g>
        <path class="cls-13" d="M178.35,531.65l20.94-20.94s9.05-6.38,16.79-1.11l-4.95,4.95s-10.25-1.4-29.38,21.29l-3.4-4.2Z"/>
        <path class="cls-9" d="M178.22,531.65c6.27-7.52,13.05-15.05,20.52-21.47,5.29-3.06,12.23-4.41,17.71-1.11,0,0,.68.38.68.38l-.58.64c-1.66,1.82-3.26,3.71-4.96,5.5h-.59c-5.85.62-10.78,4.65-15.33,8.15-4.95,4.02-9.51,8.53-13.99,13.09-1.21-1.72-2.43-3.59-3.45-5.16h0ZM178.48,531.66c1.34,1.38,2.59,2.6,3.75,3.8h-.95c5.62-7.51,12.1-14.77,20.49-19.23,2.97-1.51,6.03-2.9,9.5-2.69,0,0-.86.29-.86.29,1.7-1.6,3.48-3.11,5.21-4.69l.1,1.01c-3.47-2.72-8.34-2.78-12.27-.98-3.96,1.52-5.49,4.52-8.44,7.44-5.26,5.31-10.75,10.16-16.52,15.05h0Z"/>
      </g>
      <g>
        <path class="cls-11" d="M186.62,530.55l-89.22,89.22c-4.56,4.56-11.94,4.56-16.5,0l-32.25-32.25c-26.54-26.54-26.54-69.58,0-96.13l1.34-1.34c26.54-26.55,69.58-26.55,96.13,0l40.5,40.5Z"/>
        <path class="cls-9" d="M187.04,530.55c-18.02,20.52-38.93,43.13-58.57,63.31-6.84,7.08-13.88,14.04-21.02,20.84-3.94,3.38-7.23,7.77-12,10.06-5.49,2.47-12.3,1.02-16.29-3.42-9.73-10.72-19.67-21.23-29.94-31.42-2.48-2.5-5.22-5.33-7.38-8.16-13.34-16.53-18.96-38.91-14.27-59.78,4.31-19.95,18.17-37.27,35.79-47.38,17.85-10.25,40.39-11.56,59.48-4.1,7.14,2.71,13.79,6.73,19.65,11.61,5.69,4.93,10.68,10.69,15.76,16.19,6.83,7.37,21.94,24.59,28.79,32.27h0ZM186.19,530.55c-12.61-11.05-30.82-27.44-42.84-38.5-6.77-6.2-14.76-10.93-23.33-13.84-46.73-16.07-94.48,23.93-87.89,72.87,2.87,21.37,14.24,33.04,29.21,47.19,6.93,6.7,13.99,13.28,21.13,19.77,3.62,3.37,9.32,3.09,12.5-.31,0,0,2.36-2.53,2.36-2.53,28.25-30.17,57.74-56.6,88.86-84.64h0Z"/>
      </g>
      <g>
        <path class="cls-11" d="M144.88,540.85l-48.04,48.04-24.02-24.02c-13.27-13.27-13.27-34.77,0-48.04h0c13.27-13.27,34.77-13.27,48.04,0l24.02,24.02Z"/>
        <path class="cls-9" d="M145.05,540.85c-15.51,16.92-31.4,34.02-48.26,49.72-5.28-5.56-10.44-11.23-15.78-16.72-4.96-5.37-10.9-9.93-14.55-16.4-7.81-13.04-5.65-31,5.21-41.78,0,0-.48,1.16-.48,1.16l.48-1.16c5.37-5.38,12.46-9.23,20.1-10.2,11.41-1.78,23.33,2.75,30.98,11.27,5.35,5.33,16.98,18.48,22.31,24.11h0ZM144.71,540.85l-16.21-14.91c-5.32-4.6-9.87-10.24-16.15-13.47-3.08-1.57-6.38-2.7-9.78-3.31-10.25-1.77-21.11,1.56-28.59,8.82,0,0,.48-1.16.48-1.16l-.48,1.16c-4.88,4.9-8.39,11.28-9.45,18.22-1.26,6.96-.12,14.28,3.11,20.6,3.27,6.47,9.2,11.1,14.17,16.25,5.21,5.08,10.6,9.98,15.88,14.99h-1.69c15.17-16.29,32.31-32.02,48.71-47.19h0Z"/>
      </g>
      <g>
        <circle class="cls-14" cx="96.85" cy="540.85" r="16.45"/>
        <path class="cls-9" d="M108.36,529.34c-6.09-6.19-16.28-4.47-22.15.88-11,9.61-3.38,25.82,10.64,25.5,12.56-.04,20.66-17.18,11.51-26.37h0ZM108.6,529.1c11.7,11.21,4.76,29.94-11.75,29.8-9.62,0-16.97-8.91-17-18.05-.46-16.6,17.38-23.32,28.76-11.75h0Z"/>
      </g>
      <polygon class="cls-9" points="79.7 618.57 152.59 548.08 82.1 620.97 79.7 618.57 79.7 618.57"/>
      <polygon class="cls-9" points="170.61 515.29 149.43 534.07 168.21 512.89 170.61 515.29 170.61 515.29"/>
      <g>
        <path class="cls-9" d="M608.25,93.92c.7-3.99,4.66-6.6,8.55-6.64,2.68-.06,4.75,1.62,6.76,3.06,3.52,2.45,5.2,7.27,3.12,11.22-2.62-.56-5.27-1.31-7.77-2.1-1.46-.29-2.82-.5-3.66.43l-1.6,2.54c-2.01-2.56-4.34-6-5.4-8.51h0ZM608.64,93.87c2.53,1.72,4.52,3,6.21,4.4l-2.95.74c.75-3.65,5.14-4.55,7.91-3.59,2.2.93,4.4,1.84,6.51,2.91l-1.93.71c1.97-2.19,1.5-6.37-1.54-7.4-2.86-.92-5.88-1.19-8.78-.54-1.98.47-3.75,1.58-5.42,2.76h0Z"/>
        <path class="cls-13" d="M608.44,93.9c1.96-3.55,6.39-5.55,10.35-4.67,1.38.31,2.67.92,3.95,1.52.04.02.08.04.12.06,3.35,1.6,4.64,5.71,2.89,8.98h0c-2.22-.87-6.03-2.27-6.51-2.38-1.09-.24-2.23-.37-3.3-.09-1.08.28-2.08,1.06-2.35,2.14l-5.13-5.56Z"/>
      </g>
      <g>
        <path class="cls-9" d="M616.48,99.02c-6.25,8.01-13.86,16.85-21.94,23.53-5.43-6.78-11.36-13.07-18.09-18.57,4.98-5.94,10.82-12.21,16.23-17.77,1.95-2,4.89-4.83,6.92-6.74,5.96,6.09,11.62,12.92,16.88,19.56h0ZM616.09,99.02c-5.24-4.3-13.21-10.78-17.96-15.35h2.81c-4.98,5.33-11.09,10.94-16.46,15.92-1.9,1.7-3.85,3.35-5.78,5.01v-1.5c5.08,6.11,10.78,11.56,16.97,16.54,0,0-1.94,0-1.94,0,6.75-7.99,14.06-13.75,22.36-20.62h0Z"/>
        <rect class="cls-13" x="581.85" y="89.59" width="30.53" height="23.69" transform="translate(103.16 451.93) rotate(-45)"/>
      </g>
    </g>
    <line class="cls-5" x1="192.18" y1="497.89" x2="197.21" y2="502.92"/>
    <line class="cls-5" x1="202.11" y1="487.96" x2="207.14" y2="492.99"/>
    <line class="cls-5" x1="212.05" y1="478.03" x2="217.07" y2="483.05"/>
    <line class="cls-5" x1="221.98" y1="468.1" x2="227" y2="473.12"/>
    <line class="cls-5" x1="231.91" y1="458.16" x2="236.94" y2="463.19"/>
    <line class="cls-5" x1="241.84" y1="448.23" x2="246.87" y2="453.26"/>
    <line class="cls-5" x1="251.78" y1="438.3" x2="256.8" y2="443.32"/>
    <line class="cls-5" x1="261.71" y1="428.36" x2="266.74" y2="433.39"/>
    <line class="cls-5" x1="271.64" y1="418.43" x2="276.67" y2="423.46"/>
    <line class="cls-5" x1="281.58" y1="408.5" x2="286.6" y2="413.52"/>
    <line class="cls-5" x1="291.51" y1="398.56" x2="296.53" y2="403.59"/>
    <line class="cls-5" x1="301.44" y1="388.63" x2="306.47" y2="393.66"/>
    <line class="cls-5" x1="311.38" y1="378.7" x2="316.4" y2="383.72"/>
    <line class="cls-5" x1="321.31" y1="368.77" x2="326.33" y2="373.79"/>
    <line class="cls-5" x1="331.24" y1="358.83" x2="336.27" y2="363.86"/>
    <line class="cls-5" x1="341.17" y1="348.9" x2="346.2" y2="353.93"/>
    <line class="cls-5" x1="351.11" y1="338.97" x2="356.13" y2="343.99"/>
    <line class="cls-5" x1="361.04" y1="329.03" x2="366.07" y2="334.06"/>
    <line class="cls-5" x1="370.97" y1="319.1" x2="376" y2="324.13"/>
    <line class="cls-5" x1="380.91" y1="309.17" x2="385.93" y2="314.19"/>
    <line class="cls-5" x1="390.84" y1="299.24" x2="395.86" y2="304.26"/>
    <line class="cls-5" x1="400.77" y1="289.3" x2="405.8" y2="294.33"/>
    <line class="cls-5" x1="410.71" y1="279.37" x2="415.73" y2="284.39"/>
    <line class="cls-5" x1="420.64" y1="269.44" x2="425.66" y2="274.46"/>
    <line class="cls-5" x1="430.57" y1="259.5" x2="435.6" y2="264.53"/>
    <line class="cls-5" x1="440.5" y1="249.57" x2="445.53" y2="254.6"/>
    <line class="cls-5" x1="450.44" y1="239.64" x2="455.46" y2="244.66"/>
    <line class="cls-5" x1="460.37" y1="229.7" x2="465.4" y2="234.73"/>
    <line class="cls-5" x1="470.3" y1="219.77" x2="475.33" y2="224.8"/>
    <line class="cls-5" x1="480.24" y1="209.84" x2="485.26" y2="214.86"/>
    <line class="cls-5" x1="490.17" y1="199.91" x2="495.19" y2="204.93"/>
    <line class="cls-5" x1="500.1" y1="189.97" x2="505.13" y2="195"/>
    <line class="cls-5" x1="510.03" y1="180.04" x2="515.06" y2="185.06"/>
    <line class="cls-5" x1="519.97" y1="170.11" x2="524.99" y2="175.13"/>
    <line class="cls-5" x1="529.9" y1="160.17" x2="534.93" y2="165.2"/>
    <line class="cls-5" x1="539.83" y1="150.24" x2="544.86" y2="155.27"/>
    <line class="cls-5" x1="549.77" y1="140.31" x2="554.79" y2="145.33"/>
    <line class="cls-5" x1="559.7" y1="130.37" x2="564.73" y2="135.4"/>
    <line class="cls-5" x1="569.63" y1="120.44" x2="574.66" y2="125.47"/>
    <line class="cls-5" x1="579.57" y1="110.51" x2="584.59" y2="115.53"/>
  </g>
  <g>
    <g>
      <path class="cls-12" d="M166.7,417.58h-38.54c-5.44,0-9.85-4.41-9.85-9.85v-40.13c0-5.72,4.64-10.36,10.36-10.36h38.02v60.34Z"/>
      <path class="cls-9" d="M167,417.89c-10.8,1.7-24.07,3.21-37.31,3.47-8.2.86-15.61-5.73-14.77-14.12.52-6.57,1.39-13.14,1.82-19.71.39-6.18.37-12.37.06-18.55-.08-1.43-.17-3.42.34-5.14,1.38-5.55,6.75-9.49,12.46-9.55,6.18-.56,12.37-.87,18.55-1.07,7.64-.3,15.41-.52,23.06-.63l.06,4.65c.18,20.17-1.67,40.84-4.27,60.64h0ZM166.4,417.28c-2.04-19.72-4.5-40.37-4.27-60.04l4.57,4.57c-12.38-.31-24.75-.55-37.11-1.62-3.68-.69-7.63,1.15-9.06,4.74-.54,1.22-.66,2.38-.7,4.03-.83,12.41.54,24.77,1.78,37.11.01,4.76,3.01,8.01,7.88,7.74,11.5.26,22.97,1.77,36.9,3.47h0Z"/>
    </g>
    <g>
      <path class="cls-12" d="M488.56,417.58h38.54c5.44,0,9.85-4.41,9.85-9.85v-40.13c0-5.72-4.64-10.36-10.36-10.36h-38.02v60.34Z"/>
      <path class="cls-9" d="M488.86,417.28c13.93-1.7,25.4-3.21,36.9-3.47,4.86.27,7.86-2.96,7.88-7.74,1.24-12.34,2.61-24.69,1.78-37.11-.03-1.65-.15-2.81-.7-4.03-1.44-3.58-5.38-5.44-9.06-4.74-12.35,1.07-24.72,1.31-37.11,1.62,0,0,4.57-4.57,4.57-4.57.23,19.65-2.24,40.34-4.27,60.04h0ZM488.26,417.89c-2.6-19.8-4.45-40.47-4.27-60.64,0,0,.06-4.65.06-4.65,7.66.11,15.42.32,23.06.63,6.18.2,12.37.5,18.55,1.07,5.7.06,11.07,3.99,12.45,9.55.51,1.71.41,3.71.34,5.14-.31,6.18-.32,12.37.06,18.55.44,6.77,1.35,13.54,1.86,20.32.45,8.12-6.89,14.37-14.81,13.51-13.24-.26-26.5-1.77-37.31-3.47h0Z"/>
    </g>
    <g>
      <g>
        <path class="cls-12" d="M131.89,414.39s-30.11-227.14,160.02-241.24v233.73l-160.02,7.5Z"/>
        <path class="cls-9" d="M131.61,414.72c-.21-.21-.19-.64-.26-.91-.51-3.13-1.02-6.42-1.37-9.56-4.14-37.65-1.77-76.26,8.97-112.72,16.24-56.64,55.12-97.1,112.25-112.71,13.81-3.82,27.99-6.19,42.26-7.41,0,0,.04,1.75.04,1.75,1.83,75.69,3.27,158.16,2.91,233.73,0,0-.05,4.35-.05,4.35l-4.25.16c-51.89,2.2-108.44,2.93-160.51,3.33h0ZM132.16,414.06c51.6-4.39,108.06-8.96,159.53-11.68,0,0-4.3,4.51-4.3,4.51-.17-56.17.38-119.14,1.62-175.3,0,0,1.3-58.43,1.3-58.43l1.71,1.59c-13.55.83-27.04,2.94-40.12,6.57-99.68,28.16-123.73,142.4-119.75,232.75h0Z"/>
      </g>
      <g>
        <path class="cls-12" d="M519.73,414.39s30.11-227.14-160.02-241.24v233.73l160.02,7.5Z"/>
        <path class="cls-9" d="M519.45,414.06c3.99-90.34-20.08-204.6-119.75-232.74-13.08-3.63-26.57-5.74-40.12-6.57l1.71-1.59,1.3,58.43c1.23,56.15,1.79,119.13,1.62,175.3,0,0-4.3-4.51-4.3-4.51,51.41,2.72,107.99,7.31,159.53,11.68h0ZM520,414.72c-52.12-.42-108.56-1.13-160.51-3.33,0,0-4.25-.16-4.25-.16l-.05-4.35c-.35-75.53,1.07-158.09,2.91-233.73l.04-1.75c14.27,1.23,28.45,3.59,42.26,7.41,57.1,15.58,96.05,56.12,112.25,112.71,10.75,36.46,13.11,75.07,8.98,112.72-.35,3.14-.86,6.44-1.37,9.56l-.06.32-.03.17c-.02.15-.09.31-.18.42h0Z"/>
      </g>
      <g>
        <path class="cls-12" d="M340.59,158.92h-27.1c-15.03,0-27.33,13.26-27.75,29.91l-5.57,218.61h93.74l-5.57-218.61c-.42-16.66-12.72-29.91-27.75-29.91Z"/>
        <path class="cls-9" d="M340.59,159.36c-6.01.03-21.46.11-27.27.33-11.92.23-21.8,9.97-24.29,21.24-.7,2.78-.85,5.58-.84,8.46.51,24.26.49,48.51-.38,72.74-.77,24.23-2.5,48.44-3.82,72.65-1.37,24.22-1.99,48.45-2.21,72.7l-1.61-1.65c30.24-.59,63.49-1.91,93.74-2.31l-3.93,4.03c-1.5-37.52-3.55-94.77-3.89-131.85-.31-21.99.07-43.99.52-65.99-.02-5.41.64-19.31.16-24.59-1.06-13.41-12.3-25.77-26.18-25.75h0ZM340.59,158.47c14.56-.18,26.46,12.42,28.63,26.29.52,2.29.56,5.97.77,8.36,1.05,16.01,2.41,33.48,3.39,49.39,3.13,50.42,3.76,113.94,4.46,164.82,0,0,.06,4.09.06,4.09l-3.98-.06c-30.25-.4-63.49-1.73-93.74-2.31l-1.68-.03.07-1.63c3.5-72.69-1.52-145.53,4.7-218.13.55-15.89,13.47-31.48,30.06-31.1,5.74.19,21.33.29,27.28.31h0Z"/>
      </g>
      <g>
        <path class="cls-12" d="M323.53,399.5c-.95,0-1.91.03-2.86.1-23.59,1.66-47.18,3.33-70.77,4.99-36.17,2.55-72.5,4.56-108.6,6.97-1.63.11-3.27.22-4.9.33-3.52.24-7.16.51-10.32,2.23-3.16,1.72-5.88,5.32-5.57,9.18.37,4.66-.38,9.56-.5,14.23-.13,5.19-.23,10.62,1.84,15.29,5.33,12.06,17.91,6.61,27.09,6.96,11.03.42,21.92,5.33,29.93,13.69,5.64,5.89,10.11,13.55,17.19,17.11,5.68,2.86,12.2,2.62,18.44,2.33,36.68-1.72,73.37-2.73,110.06-4.38,1.17-.05,2.34-.05,3.5,0,36.69,1.65,73.38,2.66,110.06,4.38,6.24.29,12.76.53,18.44-2.33,7.08-3.56,11.55-11.21,17.19-17.11,8.01-8.36,18.9-13.28,29.93-13.69,9.18-.35,21.76,5.11,27.09-6.96,2.07-4.68,1.97-10.1,1.84-15.29-.12-4.68-.86-9.57-.5-14.23.3-3.86-2.41-7.45-5.57-9.18-3.16-1.72-6.79-1.99-10.32-2.23-1.63-.11-3.27-.22-4.9-.33-36.09-2.41-72.43-4.42-108.6-6.97-23.59-1.66-47.18-3.33-70.77-4.99-.95-.07-1.9-.1-2.86-.1h-5.57Z"/>
        <path class="cls-9" d="M323.53,399.93c-57.42,3.69-114.89,10.94-172.35,14.84,0,0-14.38,1.02-14.38,1.02-6.37.27-11.96,1.43-12.42,7.18,1.1,9.96-5.82,31.35,7.72,34.3,5.6.94,11.77-.78,17.61-.29,11.43.82,22.38,6.22,30.19,14.52,6.48,6.75,10.86,16.09,20.09,18.9,4.29,1.31,9.04,1.31,13.8,1.1,19.21-.65,38.42-1.41,57.61-2.37,13.85-.61,29.25-1.59,43.18-2.37,4.82-.23,9.5-.7,14.61-.61,33.45.6,81.2,1.72,115.08,2.78,13.13.48,17.77-8.93,25.59-17.75,5.31-5.85,12.04-10.46,19.5-13.19,5.01-1.81,10.19-2.91,15.73-2.88,7.45-.26,17.54,4.23,21.32-4.06,3.07-7.9.73-17.53,1.05-26.79.39-2.93-.42-3.98-2.26-5.64-3.39-2.6-10.65-2.23-14.97-2.73,0,0-14.38-1.1-14.38-1.1-32.96-2.44-81.47-7.38-114.88-10.54-9.57-.96-19.15-1.72-28.72-2.57-8.53-.51-20.31-1.97-28.73-1.74h0ZM323.53,399.06c8.38-.33,20.35.94,28.82,1.33,9.6.5,19.19,1.09,28.8,1.48,28.8,1.41,57.66,1.97,86.47,3.19,12.8.49,30.4,1.39,43.2,2.06,4.4.38,10.95.23,15.54,2,4.78,1.75,8.74,5.63,9.99,10.71.54,1.32.28,3.7.28,4.82-.15,4.14.61,9,.69,14.11.88,12.02-3.34,25.86-17.57,26.53-5.76.34-10.66-.82-14.77-.86-4.08-.03-8.48.74-12.5,2.16-8.66,2.96-14.91,8.53-20.69,15.83-3.11,3.67-6.47,7.8-11.4,10.85-9.16,5.72-20.55,3.55-30.64,3.3-8.92-.42-33.9-1.71-43.19-2.21-24.01-.9-47.69-3.88-71.77-3.32,0,0-14.42.32-14.42.32-28.83.6-57.64,1.65-86.45,2.98-4.8.22-9.83.49-14.82-.89-9.85-2.58-15.49-12.46-22.22-18.97-3.27-3.21-7.09-5.81-11.17-7.81-5.12-2.44-10.67-3.87-16.3-4.03-6.13-.14-11.93,1.85-18.31.99-16.31-2.34-15.39-21.65-14.43-33.84.13-2.35.1-4.59-.05-6.91.04-5.49,3.2-9.64,7.56-12.17,3.63-2.07,8.37-2.53,12.09-2.76,4.8-.35,9.6-.57,14.39-.85,18.74-1.09,38.94-1.99,57.61-2.59,37.9-1.11,77.54-2.99,115.25-5.45h0Z"/>
      </g>
      <path class="cls-9" d="M212.64,493.27c-9.25,1.87-21.13,0-25.89-9.34-2.53-4.42-3.45-9.16-5.19-13.1-1.76-4.12-3.74-8.18-6.29-11.66-4.86-7.13-12.9-11.44-20.92-16.14-8.09-4.75-15.7-10.32-22.44-16.8,8.08,4.69,16.13,9.15,24.41,13.12,14.91,6.62,24.26,13.72,29.93,29.61,1.68,4.67,2.47,9.19,4.2,13.06,3.58,8.57,13.56,10.7,22.2,11.25h0Z"/>
      <path class="cls-9" d="M440.59,493.27c8.63-.55,18.62-2.68,22.2-11.25,1.73-3.87,2.52-8.39,4.19-13.06,5.7-15.93,15.01-22.97,29.93-29.61,8.28-3.97,16.33-8.43,24.41-13.12-6.74,6.47-14.35,12.04-22.44,16.8-8.02,4.7-16.05,9.01-20.92,16.14-2.55,3.48-4.53,7.54-6.29,11.66-1.75,3.94-2.67,8.67-5.19,13.1-4.76,9.34-16.64,11.21-25.89,9.34h0Z"/>
      <polygon class="cls-9" points="329.54 399.5 326.87 478.96 324.2 399.5 329.54 399.5 329.54 399.5"/>
      <path class="cls-9" d="M295.03,168.56c-.22,35.48-1.66,70.93-4.3,106.27,1.58-35.41,1.94-70.85,1.09-106.24l3.21-.03h0Z"/>
      <polygon class="cls-9" points="360.82 401.75 362.41 225.52 364.03 401.74 360.82 401.75 360.82 401.75"/>
      <path class="cls-9" d="M245.65,487.87c29.57-7.84,60.45-9.37,90.91-9.7,30.46.02,61.17,2.39,91.3,6.65,0,0-22.8-1.85-22.8-1.85-22.59-1.58-45.81-2.81-68.49-2.66-30.41.12-61.06,1.41-90.92,7.56h0Z"/>
      <path class="cls-9" d="M139.95,399.91c-1.46-8.97-1.48-17.98,0-26.95,1.48,8.97,1.46,17.98,0,26.95h0Z"/>
      <path class="cls-9" d="M147.54,395.83c-2.21-5.5-2.24-11.76-.06-17.27.76,5.91.77,11.36.06,17.27h0Z"/>
      <path class="cls-9" d="M155.93,393.8c-1.89-4.24-1.62-9.24.75-13.23.54,4.64.3,8.68-.75,13.23h0Z"/>
      <path class="cls-9" d="M168.11,390.72c-.98-2.46-.52-4.73,1.37-6.6.99,2.46.51,4.73-1.37,6.6h0Z"/>
      <path class="cls-9" d="M511.07,352.11c2.91,9.34,3.54,19.36,1.81,29-1.23-9.73-1.8-19.19-1.81-29h0Z"/>
      <path class="cls-9" d="M503.94,363.3c1.46,5.75,1.48,11.54,0,17.29-1.48-5.74-1.46-11.54,0-17.29h0Z"/>
      <path class="cls-9" d="M493.32,368.9c2.04,4.34,2.15,9.35.25,13.76-1.06-4.7-1.13-9.02-.25-13.76h0Z"/>
      <path class="cls-9" d="M482.78,377.04c1.3,2.27,1.14,4.55-.48,6.61-1.31-2.27-1.13-4.54.48-6.61h0Z"/>
      <path class="cls-9" d="M467.21,379.07c1.74,1.74,1.13,4.8-1.2,5.67-.32-2.46-.1-3.56,1.2-5.67h0Z"/>
      <path class="cls-9" d="M450.41,384.66c.46-.03.72.15.86.35.55.83-.78,1.55-1.3.63-.09-.55-.3-.78-.58-.82.26.15.53.08,1.02-.16h0Z"/>
      <polygon class="cls-9" points="177.31 455.44 176.63 471.12 175.18 455.5 177.31 455.44 177.31 455.44"/>
      <polygon class="cls-9" points="180.73 463.02 179.79 472.94 178.59 462.99 180.73 463.02 180.73 463.02"/>
      <polygon class="cls-9" points="174.04 454.13 172.97 466.32 171.9 454.13 174.04 454.13 174.04 454.13"/>
      <polygon class="cls-9" points="169.45 450.03 168.23 463.8 167.31 450.01 169.45 450.03 169.45 450.03"/>
      <path class="cls-9" d="M162.92,444.94c-.13,5.3-.5,10.58-1.08,15.81-.13-5.27-.48-10.52-1.05-15.72l2.14-.09h0Z"/>
      <polygon class="cls-9" points="154.53 439.93 153.87 458.63 152.39 439.98 154.53 439.93 154.53 439.93"/>
      <polygon class="cls-9" points="145.57 435.45 144.5 447.77 143.43 435.45 145.57 435.45 145.57 435.45"/>
      <polygon class="cls-9" points="475.66 457.85 474.37 470.72 473.52 457.75 475.66 457.85 475.66 457.85"/>
      <polygon class="cls-9" points="479.34 453.99 478.14 467.32 477.2 453.89 479.34 453.99 479.34 453.99"/>
      <polygon class="cls-9" points="483.09 450.05 482.22 463.92 480.95 450.14 483.09 450.05 483.09 450.05"/>
      <polygon class="cls-9" points="488.43 446.45 487.6 463.92 486.29 446.48 488.43 446.45 488.43 446.45"/>
      <polygon class="cls-9" points="494.15 443.48 493.31 458.93 492.02 443.56 494.15 443.48 494.15 443.48"/>
      <polygon class="cls-9" points="501.35 439.46 500.23 451.68 499.21 439.4 501.35 439.46 501.35 439.46"/>
      <polygon class="cls-9" points="506.6 436.94 505.54 447.82 504.47 436.94 506.6 436.94 506.6 436.94"/>
      <polygon class="cls-9" points="513.13 432.89 512.23 442.84 510.99 432.83 513.13 432.89 513.13 432.89"/>
      <polygon class="cls-9" points="315.6 479.66 314.29 488.15 313.47 479.6 315.6 479.66 315.6 479.66"/>
      <polygon class="cls-9" points="309.15 479.7 308.31 488.61 307.02 479.86 309.15 479.7 309.15 479.7"/>
      <path class="cls-9" d="M301.54,480.07c-.72,2.37-1.18,4.86-1.36,7.41-.53-2.5-.79-5.1-.75-7.73l2.12.32h0Z"/>
      <polygon class="cls-9" points="294.87 480.93 293.67 485.66 292.73 480.87 294.87 480.93 294.87 480.93"/>
      <polygon class="cls-9" points="288.4 481.79 287.19 485.25 286.27 481.7 288.4 481.79 288.4 481.79"/>
      <polygon class="cls-9" points="321.52 479.82 320.39 487.07 319.39 479.74 321.52 479.82 321.52 479.82"/>
      <polygon class="cls-9" points="326.34 479.38 325.32 487.91 324.2 479.34 326.34 479.38 326.34 479.38"/>
      <polygon class="cls-9" points="334.36 479.18 333.42 487.63 332.22 479.26 334.36 479.18 334.36 479.18"/>
      <polygon class="cls-9" points="344.62 479.21 343.67 487.35 342.48 479.24 344.62 479.21 344.62 479.21"/>
      <polygon class="cls-9" points="353.98 479.08 352.91 483.28 351.84 479.08 353.98 479.08 353.98 479.08"/>
      <polygon class="cls-9" points="365.56 479.88 364.63 483.56 363.42 479.96 365.56 479.88 365.56 479.88"/>
      <path class="cls-9" d="M133.92,409.99c-.05-5.76.17-11.5.64-17.2.24,5.72.74,11.41,1.5,17.05l-2.13.15h0Z"/>
      <path class="cls-9" d="M143.23,408.37c0-4.68.25-9.34.75-13.95.22,4.64.68,9.24,1.38,13.79l-2.13.16h0Z"/>
      <polygon class="cls-9" points="149.46 408.28 150.58 390.01 151.6 408.29 149.46 408.28 149.46 408.28"/>
      <polygon class="cls-9" points="159.56 407.78 160.77 394.09 161.7 407.8 159.56 407.78 159.56 407.78"/>
      <polygon class="cls-9" points="166.81 406.92 168.31 398.33 168.94 407.03 166.81 406.92 166.81 406.92"/>
      <polygon class="cls-9" points="175.48 406.46 176.71 400.62 177.62 406.52 175.48 406.46 175.48 406.46"/>
      <polygon class="cls-9" points="514.35 408.9 515.59 389.11 516.49 408.96 514.35 408.9 514.35 408.9"/>
      <polygon class="cls-9" points="508.05 409.1 509.12 390.44 510.19 409.15 508.05 409.1 508.05 409.1"/>
      <polygon class="cls-9" points="501.76 407.61 502.64 392.92 503.9 407.59 501.76 407.61 501.76 407.61"/>
      <polygon class="cls-9" points="495.06 407.01 496.36 393.11 497.2 407.05 495.06 407.01 495.06 407.01"/>
      <polygon class="cls-9" points="487.28 407.03 488.03 393.49 489.42 407.02 487.28 407.03 487.28 407.03"/>
      <polygon class="cls-9" points="480.7 406.46 481.77 396.35 482.84 406.46 480.7 406.46 480.7 406.46"/>
      <path class="cls-9" d="M472.58,406.17c.04-3.63.33-7.23.86-10.77.19,3.58.62,7.12,1.28,10.59l-2.13.19h0Z"/>
      <polygon class="cls-9" points="462.45 406.44 463.27 398.06 464.59 406.47 462.45 406.44 462.45 406.44"/>
      <polygon class="cls-9" points="450.88 405.46 450.33 396.9 453 405.15 450.88 405.46 450.88 405.46"/>
      <polygon class="cls-9" points="438.03 404.5 437.37 395.62 440.14 404.17 438.03 404.5 438.03 404.5"/>
    </g>
  </g>
  <g>
    <g>
      <path class="cls-10" d="M459.98,511.95l-22.8-15.38c-.74-.5-1.68-.56-2.48-.17l-24.72,12.05c-.8.39-1.33,1.18-1.39,2.06l-1.92,27.44c-.06.89.35,1.74,1.09,2.24l22.8,15.38c.74.5,1.68.56,2.48.17l24.72-12.05c.8-.39,1.33-1.18,1.39-2.06l1.92-27.44c.06-.89-.35-1.74-1.09-2.24ZM445.39,533.17c-.03.4-.27.76-.63.94l-11.28,5.5c-.36.18-.8.15-1.13-.08l-10.4-7.02c-.34-.23-.53-.62-.5-1.02l.88-12.51c.03-.4.27-.76.63-.94l11.28-5.5c.36-.18.8-.15,1.13.08l10.4,7.02c.34.23.53.62.5,1.02l-.88,12.51Z"/>
      <g>
        <path class="cls-9" d="M459.87,512.11c-7.36-5.05-15.26-9.38-22.93-13.96-.99-.6-.93-.73-2.38.11-6.8,3.59-15.92,7.61-23.08,10.63-.46.25-1.6.53-1.83,1.12-.28.39-.27,1.55-.42,2.44l-.56,5.62c-.57,6.55-.91,13.16-1.07,19.73-.06.76.25,1.22.73,1.53,7.86,4.73,15.6,9.67,23.27,14.7.54.15.18.18,1.44-.42,4.16-2.15,8.44-4.23,12.65-6.27,3.78-1.76,7.54-3.59,11.36-5.28.12-.06.23-.15.3-.28,1.15-7.88,2.37-16.52,3.24-24.58.03-1.86.91-4-.7-5.09h0ZM460.08,511.8c.86.54,1.34,1.64,1.2,2.63-.54,8.93-.24,17.91-.44,26.85.13,1.12-.66,3.17-1.93,3.8-.6.35-.88.48-1.4.76-6.68,3.48-13.42,6.83-20.23,10.03-1.27.54-2.75,1.39-4.19,1.88-1.21.32-2.53.09-3.56-.61-1.03-.72-3.01-2.1-4.06-2.84-6.19-4.28-12.27-8.73-18.3-13.25-1.11-.74-1.64-2.26-1.42-3.38,1.02-8.79,1.75-17.88,1.95-26.75-.09-1.04.47-2.59,1.53-3.19.57-.35.87-.49,1.32-.74,5.87-3.16,14.02-7.78,20.03-10.45,1.19-.51,2.79-1.4,4.14-1.82,1.37-.36,2.78.13,3.83,1.03,7.12,5.41,14.09,11.1,21.53,16.04h0Z"/>
        <path class="cls-9" d="M445.58,533.18c-.02.5-.39.97-.82,1.15-2.69,1.39-5.16,3.15-7.66,4.85-.89.6-1.81,1.19-2.74,1.73-.46.39-2,.63-2.69.13-3.83-2.25-7.12-5.17-10.48-8.07-.46-.5-.58-1.2-.44-1.84.6-4.04.68-8.13.55-12.22-.03-1.4,1.37-2.04,2.35-2.64,2.19-1.37,4.45-2.61,6.73-3.83l2.27-1.22c.61-.29.85-.59,1.87-.72.86-.12,1.72.3,2.41.78,3.26,2.07,6.43,4.29,9.47,6.68.76.49,1.65,1.68,1.44,2.79-.04.19-.14.76-.19.97-.82,3.8-1.8,7.62-2.05,11.47h0ZM445.2,533.15c.31-4.16-.24-8.41-.49-12.61-.01.04-.02.08-.03.13.47.72-.68-.14-1.36-.49-3.05-1.81-6.01-3.75-8.89-5.82-.08-.06-.23-.16-.09-.08.14.07.3.09.45.07.6-.19-.19.1-.5.26-2.29,1.01-4.79,2.12-7.11,3.05-1.16.46-2.45.94-3.63,1.37-.19.07-.07-.02-.13,0-.88,4.01-1.3,8.44-1.2,12.61,3.34,1.88,7.7,3.93,10.87,6.38.31.23.02.01-.16.08,2.69-1.06,7.27-2.28,10.45-3.62.75-.38,1.79-.53,1.81-1.33h0Z"/>
      </g>
    </g>
    <path class="cls-9" d="M450.41,536.21c.01,1.33-1.81,1.77-2.72,2.3l-3.27,1.7-6.49,3.47c-1.34.73-2.71,1.45-4.08,2.13-.56.37-1.64.54-2.31.12-3.98-2.48-9.03-6.21-12.9-8.95-.55-.42-1.75-1.2-2.27-1.67-.52-.49-.6-1.35-.5-1.97.51-5.8.86-11.63,1.11-17.44-.02-1.51,1.83-2.04,2.87-2.64,2.06-1.08,7.69-3.92,9.84-5.01l3.29-1.65c.64-.25,1.15-.73,1.96-.79.78-.12,1.58.4,2.14.81,4.07,2.73,8.14,5.48,12.16,8.29,1.08.89,3.17,1.69,2.96,3.44-.63,5.94-1.34,11.9-1.79,17.86h0ZM450.26,536.2c.39-5.96.52-11.95.72-17.92-.03-.62-.27-.76-.98-1.2-4.65-2.97-9.22-6.08-13.79-9.17-.26-.14-.81-.67-1.17-.58-.22-.03-.89.38-1.43.61l-3.32,1.58c-2.2,1.04-7.86,3.69-10.01,4.66l-1.68.76c-.49.18-.77.55-.83,1.02-.57,5.79-1.04,11.61-1.34,17.43-.15.96.19,1.45,1.1,1.93l1.56.98c3.98,2.49,9.23,5.87,13.03,8.53.16.09.35.14.55.13,1.45-.48,3.32-1.51,4.84-2.12,2.23-.98,7.95-3.51,10.08-4.51.85-.49,2.65-.88,2.66-2.13h0Z"/>
  </g>
  <g>
    <g>
      <path class="cls-10" d="M48.44,466.41l-11.74-18.61c-.38-.6-1.05-.95-1.76-.93l-21.99.86c-.71.03-1.35.43-1.68,1.06l-10.25,19.47c-.33.63-.3,1.39.08,1.99l11.74,18.61c.38.6,1.05.95,1.76.93l21.99-.86c.71-.03,1.35-.43,1.68-1.06l10.25-19.47c.33-.63.3-1.39-.08-1.99ZM30.93,477.24c-.15.29-.44.47-.77.48l-10.03.39c-.32.01-.63-.15-.8-.42l-5.35-8.49c-.17-.27-.19-.62-.04-.91l4.67-8.88c.15-.29.44-.47.77-.48l10.03-.39c.32-.01.63.15.8.42l5.35,8.49c.17.27.19.62.04.91l-4.67,8.88Z"/>
      <g>
        <path class="cls-9" d="M48.31,466.49c-3.77-6.07-8.16-11.78-12.3-17.61-.55-.74-.45-.85-1.78-.69,0,0-2.26.13-2.26.13-5.65.36-13.4.27-19.12.21-.96.06-1.14.99-1.74,1.88l-2.22,3.94c-2.52,4.61-4.9,9.34-7.14,14.11-.29.53-.21.98.04,1.36,4.22,6,8.31,12.11,12.3,18.26.03.04.06.07.1.1,6.41-.08,14.68-.69,21.4-.66.2-.03,1.12.07,1.3-.11.93-1.29,2.3-3.8,3.29-5.32,1.58-2.75,5.56-8.91,6.99-11.63.48-1.07,1.99-2.73,1.13-3.96h0ZM48.57,466.33c.99,1.34-.46,3.11-.98,4.33-.64,1.36-1.33,2.7-1.93,4.09l-3.7,8.26c-.75,1.72-1.53,3.46-2.33,5.15-.27.86-1.5,2.11-2.64,2.16-6.44.49-12.86.75-19.32.93-1.1-.01-2.46.13-3.67.02-1.2-.17-2.17-1.03-2.71-2.08-3.73-6.1-7.39-12.26-10.89-18.49-1.12-1.7.42-3.49,1.18-4.89.76-1.3,1.5-2.61,2.22-3.93,2.29-4.16,4.68-8.75,6.69-13.07.27-.79,1.18-1.74,2.15-1.84.53-.07.79-.08,1.2-.12l9.01-.77c3.01-.2,6.01-.37,9.02-.42,1.87.03,4.67-.59,5.81,1.49,3.61,6.4,6.92,13,10.88,19.18h0Z"/>
        <path class="cls-9" d="M31.06,477.32c-.18.36-.6.59-.97.58-2.42.15-4.79.64-7.17,1.08-1.5.15-3.45,1.01-4.57-.39-1.95-2.69-3.36-5.72-4.81-8.7-.1-.19-.5-.9-.3-1.46.04-.22.19-.44.3-.62,1.75-2.76,3.1-5.74,4.34-8.77.43-1.05,1.67-1.05,2.57-1.17,2.68-.4,5.51-.58,8.21-.79.54-.02.81-.16,1.59.07.66.19,1.16.77,1.51,1.34,1.73,2.56,3.33,5.22,4.78,7.94.39.58.66,1.79.16,2.51-.09.13-.35.51-.45.65-1.83,2.52-3.77,5-5.2,7.74h0ZM30.79,477.17c1.57-2.95,2.53-6.24,3.7-9.39-.02.02-.04.05-.06.09.11.68-.45-.32-.84-.8-1.65-2.31-3.2-4.68-4.63-7.13-.04-.07-.12-.19-.04-.09.08.09.19.16.3.19.49.05-.17,0-.45.02h-2.06c-2.4.03-4.82-.04-7.22-.21-.15-.03-.07-.07-.15-.06-1.84,2.83-3.66,5.73-4.88,8.86,1.85,2.44,4.36,5.37,5.9,8.18.04.07.11.19.05.11-.06-.06-.12-.09-.2-.11,2.31.09,6.05.67,8.82.71.67-.04,1.48.18,1.75-.39h0Z"/>
      </g>
    </g>
    <path class="cls-9" d="M33.62,481.09c-.41.98-1.9.73-2.73.82-1.98.12-6.77.43-8.81.62-1.63.05-2.91.4-4.58.17-.32-.11-.61-.31-.82-.58-1.27-1.85-2.37-3.75-3.56-5.64-.55-.92-3.27-5.51-3.75-6.33-1.2-1.36.4-2.99.94-4.23,1.88-3.44,3.63-6.96,5.38-10.47.48-1.11,2-.9,2.95-.99,1.85-.12,6.9-.41,8.82-.51,1.04.01,3.73-.33,4.63-.09.61.17,1.03.81,1.31,1.28,0,0,3.14,4.98,3.14,4.98,1.29,2.06,2.62,4.16,3.86,6.27.42.56.74,1.52.3,2.21-2.38,4.15-4.82,8.28-7.06,12.5h0ZM33.52,481.04c2.21-4.24,4.23-8.58,6.3-12.89.18-.46.05-.64-.33-1.2-1.37-2.02-2.69-4.13-4-6.18l-3.15-4.98c-.15-.19-.38-.75-.67-.8-.61-.11-3.43.09-4.18.07-2.71.09-7.63.14-10.3.2-.42-.02-.74.16-.94.49-1.91,3.43-3.81,6.86-5.59,10.36-.45,1.29-1.95,2.49-.82,3.73,2.26,3.35,5.17,7.66,7.26,11.08.16.22.39.78.72.85,1.22.11,2.91-.04,4.23,0,2.07-.06,6.83.05,8.83-.07.92-.11,2.14.25,2.63-.68h0Z"/>
  </g>
  <g>
    <g>
      <path class="cls-10" d="M246.31,520.63h0c-5.38-2.98-11.94-2.87-17.21.29h0c-5.27,3.16-8.46,8.9-8.35,15.05h0c.1,6.15,3.48,11.78,8.86,14.76h0c5.38,2.98,11.94,2.87,17.21-.29h0c5.27-3.16,8.46-8.9,8.35-15.05h0c-.1-6.15-3.48-11.78-8.86-14.76ZM233.02,544.58c-4.91-2.73-6.68-8.92-3.96-13.83,2.73-4.91,8.92-6.68,13.83-3.96,4.91,2.73,6.68,8.92,3.96,13.83s-8.92,6.68-13.83,3.96Z"/>
      <g>
        <path class="cls-9" d="M246.25,520.74c-13.89-7.8-31.28,10-22.72,23.6,5.13,8.18,15.43,9.39,23.29,4.85,0,0-.64.18-.64.18,2.35-1.49,4.33-3.55,5.68-5.98,4.33-7.43,2.28-18.38-5.6-22.66h0ZM246.37,520.53c12.36,6.45,13.49,23.87,1.09,30.99-10.65,6.41-26-.22-27.28-15.53-1.05-14.37,14.2-22.45,26.2-15.46h0Z"/>
        <path class="cls-9" d="M232.96,544.69c-8.97-4.79-8.06-16.67,2.09-19.16,9.44-2.62,17.8,6.83,12.96,15.74-2.86,5.46-10.21,6.41-15.04,3.42h0ZM233.08,544.47c4.59,2.57,10.37-.26,12.61-4.49,2.41-4.23.96-9.84-3.13-12.59-10.74-6.91-19.34,11.14-9.48,17.08h0Z"/>
      </g>
    </g>
    <path class="cls-9" d="M231.42,547.45c-10.66-5.79-8.93-21.56,2.8-24.78,6.96-2.09,14.98,2.16,16.91,9.25,3.5,11.62-9.27,21.56-19.71,15.54h0ZM231.45,547.4c10.05,5.67,22.37-4.35,19.12-15.32-1.74-6.84-9.49-11.34-16.29-9.18-11.04,3.09-12.95,19-2.84,24.5h0Z"/>
  </g>
  <g>
    <g>
      <path class="cls-10" d="M284.46,547.09h0c-2.69-1.49-5.97-1.44-8.61.15h0c-2.64,1.58-4.23,4.45-4.18,7.53h0c.05,3.07,1.74,5.89,4.43,7.38h0c2.69,1.49,5.97,1.44,8.61-.15h0c2.64-1.58,4.23-4.45,4.18-7.53h0c-.05-3.07-1.74-5.89-4.43-7.38ZM277.81,559.06c-2.46-1.36-3.34-4.46-1.98-6.91,1.36-2.46,4.46-3.34,6.91-1.98,2.46,1.36,3.34,4.46,1.98,6.91-1.36,2.46-4.46,3.34-6.91,1.98Z"/>
      <g>
        <path class="cls-9" d="M284.43,547.14c-6.11-3.44-14.03,3.16-12.23,9.78,1.26,4.51,5.95,6.7,10.29,5.4,6.57-1.82,8.08-11.82,1.94-15.19h0ZM284.49,547.03c7.21,3.72,6.31,14.31-1.68,16.42-4.92,1.28-9.54-1.7-11-6.41-2.51-7.92,5.59-14.07,12.68-10h0Z"/>
        <path class="cls-9" d="M277.78,559.11c-6.7-3.84-1.42-12,5.13-9.24,6.64,3.5,1.53,13.08-5.13,9.24h0ZM277.84,559c5.28,2.47,9.64-5.26,4.74-8.54-5.34-3.46-9.68,5.58-4.74,8.54h0Z"/>
      </g>
    </g>
    <path class="cls-9" d="M277.02,560.49c-7.85-4.61-1.43-15.85,6.56-11.82,7.83,4.55,1.46,16.08-6.56,11.82h0ZM277.03,560.47c7.72,3.9,13.88-7.17,6.47-11.65-7.72-4.14-13.88,7.21-6.47,11.65h0Z"/>
  </g>
  <g>
    <g>
      <path class="cls-10" d="M301.83,512.13h0c-2.69-1.49-5.97-1.44-8.61.15h0c-2.64,1.58-4.23,4.45-4.18,7.53h0c.05,3.07,1.74,5.89,4.43,7.38h0c2.69,1.49,5.97,1.44,8.61-.15h0c2.64-1.58,4.23-4.45,4.18-7.53h0c-.05-3.07-1.74-5.89-4.43-7.38ZM295.19,524.11c-2.46-1.36-3.34-4.46-1.98-6.91,1.36-2.46,4.46-3.34,6.91-1.98,2.46,1.36,3.34,4.46,1.98,6.91-1.36,2.46-4.46,3.34-6.91,1.98Z"/>
      <g>
        <path class="cls-9" d="M301.8,512.19c-9.26-4.74-17.93,9.6-8.16,14.7,9.56,4.53,17.01-9.11,8.16-14.7h0ZM301.86,512.08c7.21,3.72,6.31,14.31-1.68,16.42-7.39,2.15-13.99-6.52-10.5-13.26,2.14-4.48,8.17-5.57,12.18-3.15h0Z"/>
        <path class="cls-9" d="M295.16,524.16c-6.7-3.84-1.42-12,5.13-9.24,6.64,3.5,1.53,13.08-5.13,9.24h0ZM295.22,524.05c5.28,2.47,9.63-5.26,4.74-8.54-5.34-3.46-9.68,5.58-4.74,8.54h0Z"/>
      </g>
    </g>
    <path class="cls-9" d="M294.39,525.54c-7.85-4.61-1.43-15.85,6.56-11.82,7.83,4.55,1.46,16.08-6.56,11.82h0ZM294.41,525.52c7.72,3.9,13.88-7.17,6.47-11.65-7.72-4.14-13.88,7.21-6.47,11.65h0Z"/>
  </g>
  <g>
    <g>
      <path class="cls-10" d="M526.54,533.91h0c-4.3-2.39-9.55-2.3-13.76.23h0c-4.22,2.53-6.76,7.12-6.68,12.04h0c.08,4.92,2.78,9.42,7.08,11.8h0c4.3,2.39,9.55,2.3,13.76-.23h0c4.22-2.53,6.76-7.12,6.68-12.04h0c-.08-4.92-2.78-9.42-7.08-11.8ZM515.91,553.06c-3.93-2.18-5.34-7.13-3.16-11.06,2.18-3.93,7.13-5.34,11.06-3.16,3.93,2.18,5.34,7.13,3.16,11.06-2.18,3.93-7.13,5.34-11.06,3.16Z"/>
      <g>
        <path class="cls-9" d="M526.49,534c-8.56-4.79-19.67,2.68-19.94,12.18-.15,10.84,11.74,15.81,20.39,10.58,0,0-.51.14-.51.14,1.88-1.2,3.46-2.84,4.54-4.78,3.46-5.95,1.82-14.7-4.48-18.12h0ZM526.58,533.83c9.87,5.08,10.77,19.18.87,24.78-5.84,3.57-15.04,2.45-19.68-5.41-7.5-13.12,5.43-26.73,18.81-19.37h0Z"/>
        <path class="cls-9" d="M515.86,553.15c-7.16-3.77-6.42-13.4,1.67-15.33,7.49-2.13,14.26,5.52,10.36,12.59-2.29,4.37-8.16,5.13-12.03,2.74h0ZM515.96,552.97c8.46,3.9,15.42-8.29,7.58-13.66-8.59-5.52-15.47,8.9-7.58,13.66h0Z"/>
      </g>
    </g>
    <path class="cls-9" d="M514.63,555.36c-8.5-4.56-7.12-17.31,2.24-19.82,5.56-1.67,11.99,1.72,13.52,7.39,2.76,9.28-7.41,17.27-15.76,12.42h0ZM514.66,555.31c12.4,6.19,22.19-11.38,10.34-18.63-12.41-6.59-22.19,11.5-10.34,18.63h0Z"/>
  </g>
  <g>
    <g>
      <path class="cls-10" d="M207.35,76.26h0c-9.58-5.32-21.28-5.12-30.67.52h0c-9.4,5.64-15.07,15.87-14.89,26.82h0c.19,10.96,6.2,20.99,15.79,26.31h0c9.58,5.32,21.28,5.12,30.67-.52h0c9.4-5.64,15.07-15.87,14.89-26.82h0c-.19-10.96-6.2-20.99-15.79-26.31ZM183.67,118.93c-8.75-4.86-11.91-15.89-7.05-24.64,4.86-8.75,15.89-11.91,24.64-7.05,8.75,4.86,11.91,15.89,7.05,24.64-4.86,8.75-15.89,11.91-24.64,7.05Z"/>
      <g>
        <path class="cls-9" d="M207.29,76.47c-24.17-13.36-54.29,15.7-41.52,40.34,7.61,14.69,27.04,19.5,41.32,10.67,16.98-9.94,20.37-39.38.19-51.01h0ZM207.4,76.04c23.17,12.64,23.11,42.83,2.42,54.92-18.59,11.55-41.66.66-47.54-19.24-8.65-28.71,19.51-49.91,45.13-35.68h0Z"/>
        <path class="cls-9" d="M183.56,119.12c-16.03-8.68-14.4-29.6,3.72-34.15,17.01-4.54,31.66,12.04,23.09,28.05-5.33,9.82-17.89,11.42-26.81,6.1h0ZM183.77,118.74c12.35,6.71,27.68-7.04,24.11-20.07-2.64-11.42-16.91-17.72-25.94-8.82-7.67,7.6-8.44,23.15,1.83,28.89h0Z"/>
      </g>
    </g>
    <path class="cls-9" d="M180.83,124.05c-19.02-10.56-16.04-38.2,5-44.15,12.42-3.76,26.68,3.84,30.13,16.46,6.02,20.99-16.18,38.3-35.13,27.69h0ZM180.88,123.95c18.1,9.97,39.73-7.53,34.08-27.31-3.11-12.2-16.9-20.18-29.03-16.38-19.73,5.72-23.09,33.68-5.05,43.68h0Z"/>
  </g>
  <g>
    <g>
      <path class="cls-10" d="M369.95,508.42l-7.28-9.26c-.24-.3-.61-.45-.99-.4l-11.66,1.67c-.38.05-.7.3-.84.66l-4.38,10.93c-.14.35-.08.76.15,1.05l7.28,9.26c.24.3.61.45.99.4l11.66-1.67c.38-.05.7-.31.84-.66l4.38-10.93c.14-.35.08-.76-.15-1.05ZM352.22,514.86c-2.27-2.89-1.77-7.07,1.12-9.35,2.89-2.27,7.07-1.77,9.35,1.12,2.27,2.89,1.77,7.07-1.12,9.35-2.89,2.27-7.07,1.77-9.35-1.12Z"/>
      <g>
        <path class="cls-9" d="M369.89,508.47c-2.4-3.1-5.13-5.96-7.71-8.92-.26-.19-.21-.14-.79-.04-1.98.33-4,.62-5.99.84l-4.82.46c-.46.05-.71.03-.89.22-1.77,3.44-3.14,7.4-4.48,11.06-.12.3-.06.53.1.72,2.11,2.44,4.2,4.9,6.22,7.41.36.41.98,1.23,1.33,1.64.01.22,1.01-.08,1.84-.18l4.78-.71c.25-.02,5.24-.67,5.32-.66.3-.02.32-.43.58-.9.68-1.37,2.42-5.14,3.12-6.56.35-.73.67-1.47,1-2.2.24-.73.9-1.51.38-2.17h0ZM370.02,508.37c.61.65-.08,1.69-.29,2.36-.27.76-.56,1.51-.8,2.28-.53,1.51-1.76,5.44-2.27,6.9-.18.39-.12.7-.61,1.34-.35.44-1.06.59-1.54.65l-4.77.77-4.79.67c-.9.05-2.11.52-2.94-.14-2.66-3.11-4.96-6.55-7.39-9.86-.35-.45-.37-1.14-.14-1.56,1.16-2.57,2.26-5.18,3.27-7.8l.83-2.27c.17-.54.44-1.51,1.24-1.67l.63-.13c3.28-.63,7.44-1.44,10.74-1.78.43-.08,1.22-.09,1.63.29.21.13.38.39.52.59,2.2,3.14,4.29,6.37,6.67,9.36h0Z"/>
        <path class="cls-9" d="M352.16,514.91c-6.1-8.1,4.32-15.16,10.88-8.55,6.21,7.61-4.74,16.56-10.88,8.55h0ZM352.28,514.81c5.13,5.64,14.28-1.42,10.05-7.9-4.68-6.89-14.52,1.83-10.05,7.9h0Z"/>
      </g>
    </g>
    <path class="cls-9" d="M350.53,516.19c-7.1-9.56,6.28-19.84,13.92-10.93,7.14,9.47-6.4,20.14-13.92,10.93h0ZM350.56,516.16c7.39,8.6,20.35-1.54,13.71-10.77-7.27-8.91-20.39,1.63-13.71,10.77h0Z"/>
  </g>
  <g>
    <g>
      <path class="cls-10" d="M252.24,151.75l-9.38-11.51c-.3-.37-.78-.55-1.26-.48l-14.65,2.37c-.47.08-.87.4-1.04.85l-5.28,13.88c-.17.45-.09.95.21,1.33l9.38,11.51c.3.37.78.55,1.26.48l14.65-2.37c.47-.08.87-.4,1.04-.85l5.28-13.88c.17-.45.09-.95-.21-1.33ZM241.39,160.43c-.08.2-.26.35-.47.39l-6.68,1.08c-.22.03-.43-.05-.57-.22l-4.28-5.25c-.14-.17-.18-.4-.1-.6l2.41-6.33c.08-.2.26-.35.47-.39l6.68-1.08c.22-.03.43.05.57.22l4.28,5.25c.14.17.18.4.1.6l-2.41,6.33Z"/>
      <g>
        <path class="cls-9" d="M252.16,151.81c-3.1-3.86-6.6-7.4-9.92-11.07-.33-.24-.27-.17-1-.04,0,0-1.5.27-1.5.27-3.47.65-8.53,1.24-12.08,1.62-.28.06-.91.02-1.12.29-1.94,3.91-3.44,8.45-4.91,12.59,0,0-.49,1.45-.49,1.45-.15.38-.06.67.14.9,3.23,3.58,6.39,7.24,9.49,10.94l.24.29s.05.04.07.06c-.11.17,1.32-.19,2.24-.32,4.22-.74,8.46-1.4,12.7-1.95.38-.03.39-.55.71-1.15.79-1.76,2.96-6.52,3.79-8.34.43-.92.8-1.87,1.21-2.8.29-.93,1.1-1.93.43-2.74h0ZM252.32,151.68c.78.81-.06,2.13-.31,2.98-.64,1.94-2.17,6.7-2.76,8.73-.16.51-.98,3.19-1.14,3.64-.11.6-.83,1.54-1.59,1.66-.44.1-.55.11-.84.17-1.99.39-4,.72-6,1.08-2.49.41-5.03.82-7.53,1.17-.8.22-2.14.05-2.69-.77-3.08-3.88-6.11-7.81-9.04-11.8-.46-.55-.49-1.42-.21-1.97,1.4-3.26,2.73-6.58,3.95-9.91l1-2.88c.21-.48.19-.94.65-1.56.38-.5,1.12-.65,1.67-.75,0,0,5.97-1.25,5.97-1.25,2.47-.49,5.02-.89,7.52-1.24.54-.11,1.54-.14,2.06.32.27.16.48.48.67.73,2.84,3.9,5.55,7.93,8.62,11.65h0Z"/>
        <path class="cls-9" d="M241.49,160.47c-.08.26-.35.45-.6.48-2.07.36-4.04,1.15-6.06,1.68-.35.13-1.27.28-1.74-.27-.73-.79-1.39-1.64-2.01-2.51-.28-.43-1.67-2.53-1.92-2.92-.24-.28-.49-.89-.17-1.39.95-1.99,1.61-4.1,2.19-6.23.2-.74,1.03-.84,1.63-1,1.31-.34,2.75-.68,4.07-.93l1.36-.27c.27-.01.28-.16,1.07-.08.46.07.84.42,1.12.77,1.36,1.57,2.65,3.22,3.85,4.93.15.14.67,1.09.31,1.67-.05.09-.19.37-.25.47-1.02,1.83-2.12,3.66-2.85,5.61h0ZM241.3,160.39c.81-2.1,1.19-4.38,1.71-6.59-.01.02-.02.04-.03.06.13.45-.33-.18-.63-.47-1.29-1.41-2.52-2.87-3.68-4.4-.03-.04-.09-.12-.04-.06.06.06.14.09.22.11.33,0-.12.02-.3.05-2.06.24-4.29.59-6.34.59-.98,1.98-1.88,3.99-2.5,6.11-.18.34.21.43.7.98,1.23,1.2,2.99,2.96,3.92,4.31-.04-.03-.09-.05-.14-.06,1.55-.12,4.11-.04,5.96-.24.45-.09,1,0,1.14-.4h0Z"/>
      </g>
    </g>
    <path class="cls-9" d="M243.51,162.79c-.2.69-1.21.64-1.76.77-1.31.24-4.5.84-5.85,1.13,0,0-1.95.38-1.95.38-.45.09-1.26.29-1.7-.21-1.66-1.9-3.7-4.62-5.27-6.64,0,0-.6-.79-.6-.79-.9-.8.02-2.04.29-2.91.98-2.46,1.87-4.95,2.75-7.45.13-.39.54-.69.92-.73.61-.14,2.3-.41,2.93-.54l3.91-.7,1.96-.34c.34-.03.58-.18,1.13-.1.42.06.76.46.98.75,1.71,2.14,3.95,4.8,5.6,6.96.17.2.54.65.46,1.12-1.15,3.15-2.63,6.13-3.79,9.28h0ZM243.43,162.76c1.12-3.03,2.23-6.25,3.2-9.3,0-.23-.09-.33-.35-.62-1.76-2.05-3.96-4.77-5.69-6.89-.13-.1-.3-.48-.51-.48-.11-.05-.52.06-.83.09l-1.96.3c-1.3.21-4.64.65-5.9.84-.41.13-1.41,0-1.57.54-1.22,3.03-2.52,6.13-3.53,9.22-.02.29.15.47.39.74.41.47,2.78,3.23,3.24,3.76,1.03,1.11,1.97,2.64,3.07,3.58.45.03,2.29-.3,2.83-.34,1.38-.21,4.58-.52,5.91-.77.61-.15,1.45,0,1.71-.67h0Z"/>
  </g>
</svg>